<svg width="18" height="18" viewBox="0 0 18 18" fill="none" xmlns="http://www.w3.org/2000/svg">
<path d="M13.7257 4.28316C13.6563 4.21363 13.5739 4.15847 13.4831 4.12083C13.3924 4.0832 13.2951 4.06382 13.1969 4.06382C13.0987 4.06382 13.0014 4.0832 12.9107 4.12083C12.82 4.15847 12.7375 4.21363 12.6682 4.28316L9.00066 7.94316L5.33316 4.27566C5.26372 4.20622 5.18129 4.15114 5.09056 4.11356C4.99984 4.07598 4.9026 4.05664 4.80441 4.05664C4.70621 4.05664 4.60897 4.07598 4.51825 4.11356C4.42753 4.15114 4.34509 4.20622 4.27566 4.27566C4.20622 4.34509 4.15114 4.42753 4.11356 4.51825C4.07598 4.60897 4.05664 4.70621 4.05664 4.80441C4.05664 4.9026 4.07598 4.99984 4.11356 5.09056C4.15114 5.18129 4.20622 5.26372 4.27566 5.33316L7.94316 9.00066L4.27566 12.6682C4.20622 12.7376 4.15114 12.82 4.11356 12.9107C4.07598 13.0015 4.05664 13.0987 4.05664 13.1969C4.05664 13.2951 4.07598 13.3923 4.11356 13.4831C4.15114 13.5738 4.20622 13.6562 4.27566 13.7257C4.34509 13.7951 4.42753 13.8502 4.51825 13.8878C4.60897 13.9253 4.70621 13.9447 4.80441 13.9447C4.9026 13.9447 4.99984 13.9253 5.09056 13.8878C5.18129 13.8502 5.26372 13.7951 5.33316 13.7257L9.00066 10.0582L12.6682 13.7257C12.7376 13.7951 12.82 13.8502 12.9107 13.8878C13.0015 13.9253 13.0987 13.9447 13.1969 13.9447C13.2951 13.9447 13.3923 13.9253 13.4831 13.8878C13.5738 13.8502 13.6562 13.7951 13.7257 13.7257C13.7951 13.6562 13.8502 13.5738 13.8878 13.4831C13.9253 13.3923 13.9447 13.2951 13.9447 13.1969C13.9447 13.0987 13.9253 13.0015 13.8878 12.9107C13.8502 12.82 13.7951 12.7376 13.7257 12.6682L10.0582 9.00066L13.7257 5.33316C14.0107 5.04816 14.0107 4.56816 13.7257 4.28316Z" fill="#868E96"/>
</svg>
