<svg width="18" height="18" viewBox="0 0 18 18" fill="none" xmlns="http://www.w3.org/2000/svg">
<path d="M7.5 4.5C7.0875 4.5 6.7345 4.35325 6.441 4.05975C6.1475 3.76625 6.0005 3.413 6 3C5.9995 2.587 6.1465 2.23401 6.441 1.94101C6.7355 1.64801 7.0885 1.50101 7.5 1.50001C7.9115 1.49901 8.26475 1.64601 8.55975 1.94101C8.85475 2.23601 9.0015 2.589 9 3C8.9985 3.411 8.85175 3.76425 8.55975 4.05975C8.26775 4.35525 7.9145 4.502 7.5 4.5ZM12.375 13.5C12.9 13.5 13.3438 13.3188 13.7062 12.9563C14.0687 12.5938 14.25 12.15 14.25 11.625C14.25 11.1 14.0687 10.6563 13.7062 10.2938C13.3438 9.93125 12.9 9.75 12.375 9.75C11.85 9.75 11.4062 9.93125 11.0438 10.2938C10.6813 10.6563 10.5 11.1 10.5 11.625C10.5 12.15 10.6813 12.5938 11.0438 12.9563C11.4062 13.3188 11.85 13.5 12.375 13.5ZM16.2 16.5L14.175 14.475C13.9 14.65 13.6125 14.7813 13.3125 14.8688C13.0125 14.9563 12.7 15 12.375 15C11.4375 15 10.6407 14.672 9.98475 14.016C9.32875 13.36 9.0005 12.563 9 11.625C8.9995 10.687 9.32775 9.89025 9.98475 9.23475C10.6417 8.57925 11.4385 8.251 12.375 8.25C13.3115 8.249 14.1085 8.57725 14.766 9.23475C15.4235 9.89225 15.7515 10.689 15.75 11.625C15.75 11.95 15.7063 12.2625 15.6188 12.5625C15.5313 12.8625 15.4 13.15 15.225 13.425L17.25 15.45L16.2 16.5ZM8.25 16.5V14.2313C8.4375 14.5313 8.6595 14.8063 8.916 15.0563C9.1725 15.3063 9.4505 15.5313 9.75 15.7313V16.5H8.25ZM5.25 16.5V6.75C4.4875 6.6875 3.73125 6.59675 2.98125 6.47775C2.23125 6.35875 1.4875 6.1995 0.75 6L1.125 4.5C2.175 4.7875 3.22825 4.9845 4.28475 5.091C5.34125 5.1975 6.413 5.2505 7.5 5.25C8.587 5.2495 9.659 5.19625 10.716 5.09025C11.773 4.98425 12.826 4.7875 13.875 4.5L14.25 6C13.5125 6.2 12.7687 6.3595 12.0187 6.4785C11.2687 6.5975 10.5125 6.688 9.75 6.75V7.51875C9.075 7.95625 8.53125 8.5345 8.11875 9.2535C7.70625 9.9725 7.5 10.763 7.5 11.625V11.8125C7.5 11.875 7.50625 11.9375 7.51875 12H6.75V16.5H5.25Z" fill="#868E96"/>
</svg>
