<svg width="16" height="16" viewBox="0 0 16 16" fill="none" xmlns="http://www.w3.org/2000/svg">
<path d="M9.69827 1.63672H7.22027C6.09772 1.63672 5.20809 1.63672 4.51254 1.7309C3.796 1.82763 3.21627 2.03126 2.75936 2.49008C2.30182 2.9489 2.09882 3.53117 2.00273 4.25026C1.90918 4.94899 1.90918 5.84181 1.90918 6.96881V10.6839C1.90918 11.6435 2.49463 12.4657 3.32636 12.8106C3.28373 12.2315 3.28373 11.4202 3.28373 10.7444V7.55617C3.28373 6.74099 3.28373 6.03781 3.35882 5.47526C3.43963 4.87199 3.62163 4.29417 4.08873 3.82517C4.55582 3.35617 5.13173 3.17354 5.73245 3.09208C6.29245 3.01699 6.99245 3.01699 7.80509 3.01699H9.75873C10.5707 3.01699 11.2695 3.01699 11.8301 3.09208C11.6622 2.66336 11.3689 2.29519 10.9887 2.03558C10.6084 1.77597 10.1587 1.63698 9.69827 1.63672Z" fill="#343A40"/>
<path d="M4.2002 7.61564C4.2002 5.88091 4.2002 5.01355 4.73729 4.47455C5.27374 3.93555 6.13729 3.93555 7.86565 3.93555H9.69838C11.4261 3.93555 12.2903 3.93555 12.8274 4.47455C13.3645 5.01355 13.3638 5.88091 13.3638 7.61564V10.6829C13.3638 12.4176 13.3638 13.285 12.8274 13.824C12.2903 14.363 11.4261 14.363 9.69838 14.363H7.86565C6.13792 14.363 5.27374 14.363 4.73729 13.824C4.2002 13.285 4.2002 12.4176 4.2002 10.6829V7.61564Z" fill="#343A40"/>
</svg>
