<svg width="16" height="16" viewBox="0 0 16 16" fill="none" xmlns="http://www.w3.org/2000/svg">
<path d="M12.4066 2.35949C12.2277 2.18045 12.0152 2.03844 11.7814 1.94157C11.5475 1.84469 11.2969 1.79486 11.0437 1.79492C10.7906 1.79498 10.54 1.84493 10.3062 1.94191C10.0724 2.03889 9.85995 2.181 9.6811 2.36012L3.63119 8.41831C3.27071 8.77962 3.06818 9.26911 3.068 9.77949V11.8178C3.068 12.0812 3.28182 12.295 3.54528 12.295H5.59628C6.10728 12.295 6.59728 12.0914 6.9581 11.7306L13.0036 5.68131C13.3642 5.31983 13.5667 4.83008 13.5667 4.31949C13.5667 3.80889 13.3642 3.31914 13.0036 2.95767L12.4066 2.35949ZM2.90891 13.2496C2.78233 13.2496 2.66094 13.2999 2.57143 13.3894C2.48192 13.4789 2.43164 13.6003 2.43164 13.7269C2.43164 13.8534 2.48192 13.9748 2.57143 14.0643C2.66094 14.1538 2.78233 14.2041 2.90891 14.2041H13.0907C13.2173 14.2041 13.3387 14.1538 13.4282 14.0643C13.5177 13.9748 13.568 13.8534 13.568 13.7269C13.568 13.6003 13.5177 13.4789 13.4282 13.3894C13.3387 13.2999 13.2173 13.2496 13.0907 13.2496H2.90891Z" fill="#343A40"/>
</svg>
