<svg width="19" height="18" viewBox="0 0 19 18" fill="none" xmlns="http://www.w3.org/2000/svg">
<path d="M7.2256 11.697L10.4214 10.6672C10.6139 10.6023 10.7766 10.503 10.9096 10.3695C11.0426 10.236 11.1418 10.0733 11.2073 9.88125L12.2401 6.68175C12.2756 6.56575 12.2491 6.46425 12.1606 6.37725C12.0716 6.29025 11.9698 6.26525 11.8554 6.30225L8.65885 7.33275C8.46685 7.39775 8.3041 7.497 8.1706 7.6305C8.0376 7.764 7.93835 7.92675 7.87285 8.11875L6.8401 11.3182C6.8046 11.4342 6.8311 11.5357 6.9196 11.6227C7.0086 11.7098 7.11035 11.7347 7.22485 11.6978M9.53635 9.83625C9.30335 9.83625 9.10635 9.75475 8.94535 9.59175C8.78385 9.42825 8.7031 9.22975 8.7031 8.99625C8.7031 8.76325 8.78485 8.56625 8.94835 8.40525C9.11185 8.24375 9.3101 8.163 9.5431 8.163C9.7766 8.163 9.9741 8.24475 10.1356 8.40825C10.2966 8.57175 10.3771 8.77 10.3771 9.003C10.3771 9.2365 10.2953 9.434 10.1318 9.5955C9.96835 9.756 9.7701 9.83625 9.5371 9.83625M9.54235 15.75C8.60885 15.75 7.73135 15.573 6.90985 15.219C6.08835 14.8645 5.3736 14.3835 4.7656 13.776C4.1576 13.1685 3.67635 12.4545 3.32185 11.634C2.96735 10.8135 2.7901 9.93625 2.7901 9.00225C2.7901 8.06825 2.96735 7.19075 3.32185 6.36975C3.67585 5.54825 4.1561 4.8335 4.7626 4.2255C5.3691 3.6175 6.08335 3.13625 6.90535 2.78175C7.72735 2.42725 8.60485 2.25 9.53785 2.25C10.4708 2.25 11.3484 2.42725 12.1704 2.78175C12.9918 3.13575 13.7066 3.61625 14.3146 4.22325C14.9226 4.83025 15.4039 5.5445 15.7584 6.366C16.1129 7.1875 16.2901 8.06475 16.2901 8.99775C16.2901 9.93075 16.1131 10.8083 15.7591 11.6302C15.4051 12.4522 14.9241 13.167 14.3161 13.7745C13.7081 14.382 12.9941 14.8633 12.1741 15.2183C11.3541 15.5732 10.4769 15.7505 9.54235 15.75Z" fill="#868E96"/>
</svg>
