<svg width="18" height="18" viewBox="0 0 18 18" fill="none" xmlns="http://www.w3.org/2000/svg">
<g clip-path="url(#clip0_3002_14488)">
<path d="M14.985 4.49016L14.6004 4.87477C14.4046 5.07057 14.139 5.18057 13.8621 5.18057C13.5852 5.18057 13.3196 5.07057 13.1238 4.87477C12.928 4.67896 12.818 4.41339 12.818 4.13648C12.818 3.85958 12.928 3.59401 13.1238 3.3982L13.5084 3.01359L11.0573 0.5625L7.96359 3.65625L7.82297 4.08129L7.39793 4.22191L0.5625 11.0573L3.015 13.5098L3.39961 13.1252C3.59541 12.9294 3.86098 12.8194 4.13789 12.8194C4.4148 12.8194 4.68037 12.9294 4.87617 13.1252C5.07198 13.321 5.18198 13.5866 5.18198 13.8635C5.18198 14.1404 5.07198 14.406 4.87617 14.6018L4.49156 14.9864L6.94266 17.4375L13.777 10.6031L13.9177 10.1781L14.3427 10.0375L17.4364 6.94371L14.985 4.49016ZM7.65281 4.68105L8.42168 3.91219L9.58184 5.07234L8.81262 5.84121L7.65281 4.68105ZM9.16453 6.19277L9.93375 5.42355L11.077 6.56684L10.3078 7.33605L9.16453 6.19277ZM10.6608 7.68902L11.43 6.9198L12.5733 8.06309L11.8055 8.83406L10.6608 7.68902ZM13.3175 10.3454L12.1574 9.18527L12.9262 8.41605L14.0864 9.57621L13.3175 10.3454Z" fill="#ADB5BD"/>
</g>
<defs>
<clipPath id="clip0_3002_14488">
<rect width="18" height="18" fill="white"/>
</clipPath>
</defs>
</svg>
