<svg width="547" height="112" viewBox="0 0 547 112" fill="none" xmlns="http://www.w3.org/2000/svg">
<path d="M244 67.5001L243.522 67.6483L244 67.5001ZM544.776 107.28L546.78 103.724L543.224 101.72L541.22 105.277L544.776 107.28ZM6.53183 23.9991C43.0965 21.6669 98.8391 21.068 147.228 26.8465C171.426 29.7362 193.756 34.2174 210.924 40.8601C228.121 47.5141 239.995 56.281 243.522 67.6483L244.478 67.3519C240.805 55.5191 228.537 46.6027 211.285 39.9275C194.004 33.241 171.579 28.7473 147.347 25.8536C98.8776 20.0655 43.0702 20.6666 6.46817 23.0011L6.53183 23.9991ZM243.522 67.6483C245.759 74.8542 245.228 79.445 243.038 82.0704C240.848 84.6957 236.827 85.5602 231.564 84.8792C221.067 83.5208 206.277 76.0817 193.812 66.1096C187.588 61.1301 181.965 55.5361 177.763 49.7833C173.557 44.0254 170.798 38.1412 170.248 32.5759C169.7 27.0357 171.336 21.7799 175.991 17.2165C180.665 12.6343 188.409 8.72641 200.114 5.98693L199.886 5.01325C188.091 7.77377 180.148 11.7408 175.291 16.5024C170.414 21.2828 168.675 26.8395 169.252 32.6743C169.827 38.484 172.693 44.5373 176.956 50.3731C181.222 56.214 186.912 61.8701 193.188 66.8905C205.723 76.9185 220.683 84.4794 231.436 85.8709C236.798 86.5649 241.277 85.7419 243.806 82.711C246.334 79.6801 246.741 74.6459 244.478 67.3519L243.522 67.6483ZM200.114 5.98693C223.532 0.506082 255.747 0.468122 291.172 4.37988C326.586 8.29054 365.168 16.144 401.301 26.4185C437.436 36.6937 471.103 49.3853 496.695 62.9652C509.492 69.7555 520.255 76.7602 528.295 83.7858C536.343 90.8181 541.619 97.8332 543.518 104.635L544.482 104.366C542.506 97.292 537.063 90.1196 528.953 83.0328C520.835 75.9392 510 68.8931 497.164 62.0819C471.49 48.4586 437.752 35.7439 401.574 25.4567C365.394 15.1687 326.758 7.30339 291.281 3.38592C255.815 -0.530442 223.468 -0.505901 199.886 5.01325L200.114 5.98693Z" fill="#D3174C"/>
<path d="M238.5 71.366L238.022 71.5142L238.5 71.366ZM539.276 111.146L541.28 107.59L537.724 105.586L535.72 109.143L539.276 111.146ZM1.03183 27.865C37.5965 25.5329 93.3391 24.934 141.728 30.7125C165.926 33.6021 188.256 38.0834 205.424 44.7261C222.621 51.38 234.495 60.147 238.022 71.5142L238.978 71.2178C235.305 59.3851 223.037 50.4687 205.785 43.7935C188.504 37.107 166.079 32.6133 141.847 29.7196C93.3776 23.9314 37.5702 24.5325 0.968174 26.867L1.03183 27.865ZM238.022 71.5142C240.259 78.7202 239.728 83.311 237.538 85.9364C235.348 88.5617 231.327 89.4262 226.064 88.7452C215.567 87.3868 200.777 79.9476 188.312 69.9756C182.088 64.996 176.465 59.4021 172.263 53.6493C168.057 47.8914 165.298 42.0071 164.748 36.4418C164.2 30.9017 165.836 25.6459 170.491 21.0825C175.165 16.5003 182.909 12.5924 194.614 9.8529L194.386 8.87921C182.591 11.6397 174.648 15.6068 169.791 20.3684C164.914 25.1487 163.175 30.7054 163.752 36.5403C164.327 42.35 167.193 48.4032 171.456 54.2391C175.722 60.08 181.412 65.7361 187.688 70.7565C200.223 80.7845 215.183 88.3453 225.936 89.7369C231.298 90.4309 235.777 89.6079 238.306 86.577C240.834 83.5461 241.241 78.5119 238.978 71.2178L238.022 71.5142ZM194.614 9.8529C218.032 4.37205 250.247 4.33409 285.672 8.24585C321.086 12.1565 359.668 20.0099 395.801 30.2845C431.936 40.5597 465.603 53.2513 491.195 66.8312C503.992 73.6215 514.755 80.6262 522.795 87.6517C530.843 94.684 536.119 101.699 538.018 108.501L538.982 108.232C537.006 101.158 531.563 93.9856 523.453 86.8987C515.335 79.8051 504.5 72.7591 491.664 65.9478C465.99 52.3246 432.252 39.6099 396.074 29.3226C359.894 19.0347 321.258 11.1694 285.781 7.25189C250.315 3.33552 217.968 3.36007 194.386 8.87921L194.614 9.8529Z" fill="#7D1AB9"/>
</svg>
