<svg width="29" height="28" viewBox="0 0 29 28" fill="none" xmlns="http://www.w3.org/2000/svg">
<path d="M14.5 0.318359C22.0563 0.318359 28.1816 6.44374 28.1816 14C28.1816 21.5563 22.0563 27.6816 14.5 27.6816C6.94374 27.6816 0.818359 21.5563 0.818359 14C0.818359 6.44374 6.94374 0.318359 14.5 0.318359Z" fill="#E9ECEF"/>
<path d="M14.5 0.318359C22.0563 0.318359 28.1816 6.44374 28.1816 14C28.1816 21.5563 22.0563 27.6816 14.5 27.6816C6.94374 27.6816 0.818359 21.5563 0.818359 14C0.818359 6.44374 6.94374 0.318359 14.5 0.318359Z" stroke="#868E96" stroke-width="0.636364"/>
<path fill-rule="evenodd" clip-rule="evenodd" d="M14.5 16.3863C14.6266 16.3863 14.748 16.336 14.8375 16.2465C14.927 16.157 14.9773 16.0356 14.9773 15.909V8.92623L16.0464 10.1741C16.1287 10.2703 16.2459 10.3299 16.3722 10.3397C16.4985 10.3495 16.6234 10.3087 16.7196 10.2263C16.8158 10.144 16.8754 10.0268 16.8852 9.90049C16.895 9.77423 16.8542 9.64925 16.7718 9.55305L14.8627 7.32577C14.8179 7.27338 14.7623 7.23131 14.6997 7.20247C14.6371 7.17363 14.5689 7.15869 14.5 7.15869C14.4311 7.15869 14.3629 7.17363 14.3003 7.20247C14.2377 7.23131 14.1821 7.27338 14.1373 7.32577L12.2282 9.55305C12.1874 9.60068 12.1564 9.65588 12.137 9.71549C12.1175 9.77511 12.11 9.83797 12.1148 9.90049C12.1197 9.96301 12.1368 10.024 12.1652 10.0799C12.1936 10.1358 12.2327 10.1855 12.2804 10.2263C12.328 10.2671 12.3832 10.2981 12.4428 10.3175C12.5024 10.337 12.5653 10.3445 12.6278 10.3397C12.6903 10.3348 12.7513 10.3177 12.8072 10.2893C12.8631 10.2609 12.9129 10.2218 12.9536 10.1741L14.0227 8.92686V15.909C14.0227 16.1725 14.2365 16.3863 14.5 16.3863Z" fill="#343A40"/>
<path d="M17.0454 12.0908C16.5987 12.0908 16.3754 12.0908 16.2144 12.1984C16.1451 12.2447 16.0857 12.3041 16.0394 12.3734C15.9318 12.5344 15.9318 12.7577 15.9318 13.2045V15.909C15.9318 16.2887 15.781 16.6529 15.5124 16.9215C15.2439 17.19 14.8797 17.3408 14.5 17.3408C14.1202 17.3408 13.7561 17.19 13.4875 16.9215C13.219 16.6529 13.0682 16.2887 13.0682 15.909V13.2045C13.0682 12.7577 13.0682 12.5344 12.9606 12.3734C12.9143 12.3041 12.8548 12.2447 12.7856 12.1984C12.6246 12.0908 12.4013 12.0908 11.9545 12.0908C10.1549 12.0908 9.25444 12.0908 8.69572 12.6502C8.13635 13.2089 8.13635 14.1081 8.13635 15.9084V16.5447C8.13635 18.3456 8.13635 19.2448 8.69572 19.8042C9.25444 20.3635 10.1549 20.3635 11.9545 20.3635H17.0454C18.8451 20.3635 19.7455 20.3635 20.3043 19.8042C20.863 19.2448 20.8636 18.345 20.8636 16.5454V15.909C20.8636 14.1087 20.8636 13.2089 20.3043 12.6502C19.7455 12.0908 18.8451 12.0908 17.0454 12.0908Z" fill="#343A40"/>
</svg>
