<svg width="18" height="18" viewBox="0 0 18 18" fill="none" xmlns="http://www.w3.org/2000/svg">
<path d="M2.25 6.75V3.375C2.25 2.75368 2.75368 2.25 3.375 2.25H14.625C15.2463 2.25 15.75 2.75368 15.75 3.375V6.75" stroke="#26B961" stroke-width="2" stroke-linecap="round" stroke-linejoin="round"/>
<path d="M7.875 9.75L12.375 4.875" stroke="#26B961" stroke-width="2" stroke-linecap="round" stroke-linejoin="round"/>
<path d="M9.75 7.875L11.25 9.375" stroke="#26B961" stroke-width="2" stroke-linecap="round" stroke-linejoin="round"/>
<path d="M11.625 6L13.125 7.5" stroke="#26B961" stroke-width="2" stroke-linecap="round" stroke-linejoin="round"/>
<path d="M2.25 11.25V14.625C2.25 15.2463 2.75368 15.75 3.375 15.75H14.625C15.2463 15.75 15.75 15.2463 15.75 14.625V11.25" stroke="#26B961" stroke-width="2" stroke-linecap="round" stroke-linejoin="round"/>
<path d="M6.75 13.125C7.78553 13.125 8.625 12.2855 8.625 11.25C8.625 10.2145 7.78553 9.375 6.75 9.375C5.71447 9.375 4.875 10.2145 4.875 11.25C4.875 12.2855 5.71447 13.125 6.75 13.125Z" stroke="#26B961" stroke-width="2" stroke-linecap="round" stroke-linejoin="round"/>
</svg>
