<svg width="81" height="26" viewBox="0 0 81 26" fill="none" xmlns="http://www.w3.org/2000/svg">
<path d="M24.6366 6.99278L18.6302 12.9992L24.6366 19.0057L18.6302 25.0121L12.6237 19.0057L6.61727 25.0121H0.4599V19.0057L6.46635 12.9992H0.4599L6.49654 6.99278H0.4599L6.49654 0.986328H24.6366L18.6302 6.99278H24.6366Z" fill="#181A1B"/>
<path d="M29.5454 18V13.9939L29.5304 10.1979H30.9708L30.8657 13.1087H31.0908C31.1708 12.4285 31.3059 11.8633 31.4959 11.4132C31.686 10.9531 31.941 10.608 32.2611 10.3779C32.5912 10.1378 32.9813 10.0178 33.4314 10.0178C33.5515 10.0178 33.6765 10.0278 33.8065 10.0478C33.9366 10.0678 34.0816 10.1028 34.2417 10.1528L34.1666 11.8933C34.0066 11.8233 33.8466 11.7733 33.6865 11.7433C33.5265 11.7133 33.3764 11.6983 33.2364 11.6983C32.8463 11.6983 32.5112 11.8183 32.2311 12.0584C31.951 12.2884 31.721 12.6185 31.5409 13.0486C31.3709 13.4788 31.2458 13.9839 31.1658 14.5641V18H29.5454ZM37.8988 18.1951C37.2686 18.1951 36.7135 18.105 36.2334 17.925C35.7632 17.7349 35.3631 17.4649 35.033 17.1148C34.7129 16.7647 34.4679 16.3495 34.2978 15.8694C34.1378 15.3793 34.0578 14.8341 34.0578 14.234C34.0578 13.6238 34.1378 13.0636 34.2978 12.5535C34.4579 12.0434 34.6929 11.5982 35.003 11.2181C35.3231 10.828 35.7132 10.5279 36.1733 10.3179C36.6335 10.1078 37.1636 10.0028 37.7638 10.0028C38.3139 10.0028 38.8091 10.0978 39.2492 10.2879C39.6893 10.4679 40.0544 10.743 40.3445 11.1131C40.6446 11.4732 40.8646 11.9233 41.0047 12.4635C41.1447 12.9936 41.1947 13.6088 41.1547 14.309L35.093 14.369V13.3487L40.1194 13.3037L39.6243 13.9189C39.6743 13.3487 39.6243 12.8736 39.4742 12.4935C39.3242 12.1134 39.1041 11.8283 38.8141 11.6382C38.524 11.4382 38.1789 11.3382 37.7788 11.3382C37.3287 11.3382 36.9435 11.4532 36.6235 11.6833C36.3034 11.9133 36.0583 12.2434 35.8883 12.6735C35.7182 13.0936 35.6332 13.5988 35.6332 14.189C35.6332 15.0892 35.8282 15.7694 36.2183 16.2295C36.6185 16.6896 37.1836 16.9197 37.9138 16.9197C38.2339 16.9197 38.504 16.8797 38.724 16.7997C38.9541 16.7096 39.1442 16.5946 39.2942 16.4546C39.4442 16.3145 39.5593 16.1545 39.6393 15.9744C39.7293 15.7944 39.7893 15.6043 39.8193 15.4043L41.2747 15.6744C41.2047 16.0545 41.0847 16.3996 40.9146 16.7096C40.7546 17.0097 40.5345 17.2748 40.2545 17.5049C39.9744 17.7249 39.6393 17.895 39.2492 18.015C38.8591 18.135 38.4089 18.1951 37.8988 18.1951ZM41.8992 18V13.4387L41.8842 10.1979H43.3096L43.2045 12.9286H43.4296C43.5496 12.2684 43.7247 11.7233 43.9547 11.2932C44.1848 10.853 44.4849 10.5279 44.855 10.3179C45.2251 10.1078 45.6652 10.0028 46.1753 10.0028C47.0556 10.0028 47.7158 10.3129 48.1559 10.9331C48.606 11.5532 48.8311 12.4985 48.8311 13.7688V18H47.1956V13.9189C47.1956 13.0586 47.0656 12.4285 46.8055 12.0284C46.5554 11.6282 46.1703 11.4282 45.6502 11.4282C45.2101 11.4282 44.83 11.5732 44.5099 11.8633C44.1998 12.1434 43.9597 12.5385 43.7897 13.0486C43.6296 13.5488 43.5396 14.1289 43.5196 14.7891V18H41.8992ZM52.6398 18.1951C51.9996 18.1951 51.4444 18.03 50.9743 17.6999C50.5042 17.3698 50.1391 16.8997 49.879 16.2895C49.6189 15.6794 49.4889 14.9442 49.4889 14.0839C49.4889 13.2737 49.6089 12.5635 49.849 11.9533C50.0891 11.3432 50.4392 10.868 50.8993 10.5279C51.3694 10.1879 51.9296 10.0178 52.5798 10.0178C53.1099 10.0178 53.55 10.1278 53.9001 10.3479C54.2602 10.558 54.5503 10.858 54.7704 11.2481C54.9904 11.6382 55.1555 12.0934 55.2655 12.6135H55.5206C55.4606 12.2734 55.4055 11.9433 55.3555 11.6232C55.3155 11.2932 55.2805 10.9781 55.2505 10.678C55.2205 10.3779 55.2055 10.1078 55.2055 9.86776V7.49711H56.8559V14.309V18H55.4155L55.4906 15.7194H55.2655C55.1455 16.2495 54.9704 16.6996 54.7404 17.0697C54.5203 17.4298 54.2352 17.7099 53.8851 17.91C53.535 18.1 53.1199 18.1951 52.6398 18.1951ZM53.0899 16.8147C53.43 16.8147 53.7351 16.7347 54.0052 16.5746C54.2752 16.4146 54.4953 16.2045 54.6653 15.9444C54.8454 15.6844 54.9804 15.4043 55.0704 15.1042C55.1605 14.7941 55.2055 14.499 55.2055 14.219V14.0389C55.2055 13.8389 55.1805 13.6188 55.1305 13.3787C55.0804 13.1387 55.0004 12.9036 54.8904 12.6735C54.7804 12.4435 54.6403 12.2334 54.4703 12.0434C54.3002 11.8433 54.1002 11.6883 53.8701 11.5782C53.6401 11.4582 53.38 11.3982 53.0899 11.3982C52.6898 11.3982 52.3447 11.5182 52.0546 11.7583C51.7745 11.9883 51.5595 12.3084 51.4094 12.7185C51.2594 13.1287 51.1844 13.5988 51.1844 14.1289C51.1844 14.6691 51.2594 15.1442 51.4094 15.5543C51.5595 15.9544 51.7745 16.2645 52.0546 16.4846C52.3447 16.7046 52.6898 16.8147 53.0899 16.8147ZM61.4113 18.1951C60.7812 18.1951 60.226 18.105 59.7459 17.925C59.2757 17.7349 58.8756 17.4649 58.5455 17.1148C58.2255 16.7647 57.9804 16.3495 57.8103 15.8694C57.6503 15.3793 57.5703 14.8341 57.5703 14.234C57.5703 13.6238 57.6503 13.0636 57.8103 12.5535C57.9704 12.0434 58.2054 11.5982 58.5155 11.2181C58.8356 10.828 59.2257 10.5279 59.6859 10.3179C60.146 10.1078 60.6761 10.0028 61.2763 10.0028C61.8264 10.0028 62.3216 10.0978 62.7617 10.2879C63.2018 10.4679 63.5669 10.743 63.857 11.1131C64.1571 11.4732 64.3771 11.9233 64.5172 12.4635C64.6572 12.9936 64.7072 13.6088 64.6672 14.309L58.6056 14.369V13.3487L63.6319 13.3037L63.1368 13.9189C63.1868 13.3487 63.1368 12.8736 62.9868 12.4935C62.8367 12.1134 62.6167 11.8283 62.3266 11.6382C62.0365 11.4382 61.6914 11.3382 61.2913 11.3382C60.8412 11.3382 60.4561 11.4532 60.136 11.6833C59.8159 11.9133 59.5708 12.2434 59.4008 12.6735C59.2307 13.0936 59.1457 13.5988 59.1457 14.189C59.1457 15.0892 59.3408 15.7694 59.7309 16.2295C60.131 16.6896 60.6961 16.9197 61.4263 16.9197C61.7464 16.9197 62.0165 16.8797 62.2366 16.7997C62.4666 16.7096 62.6567 16.5946 62.8067 16.4546C62.9568 16.3145 63.0718 16.1545 63.1518 15.9744C63.2418 15.7944 63.3019 15.6043 63.3319 15.4043L64.7873 15.6744C64.7172 16.0545 64.5972 16.3996 64.4272 16.7096C64.2671 17.0097 64.0471 17.2748 63.767 17.5049C63.4869 17.7249 63.1518 17.895 62.7617 18.015C62.3716 18.135 61.9215 18.1951 61.4113 18.1951ZM67.1564 18L64.4406 10.2129H66.2261L68.2067 16.6496H68.3867L70.3523 10.2129H72.0927L69.362 18H67.1564ZM74.9888 18.1951C74.0985 18.1951 73.4333 17.89 72.9932 17.2798C72.5531 16.6596 72.333 15.7194 72.333 14.459V10.1979H73.9835V14.339C73.9835 15.1692 74.1035 15.7844 74.3436 16.1845C74.5837 16.5846 74.9688 16.7847 75.4989 16.7847C75.809 16.7847 76.0791 16.7096 76.3091 16.5596C76.5492 16.4096 76.7543 16.1945 76.9243 15.9144C77.1044 15.6343 77.2444 15.2943 77.3444 14.8941C77.4445 14.494 77.5095 14.0389 77.5395 13.5288V10.1979H79.1599V14.5941L79.1749 18H77.7645L77.8546 15.3143H77.6445C77.5245 15.9844 77.3494 16.5346 77.1194 16.9647C76.8893 17.3848 76.5942 17.6949 76.2341 17.895C75.884 18.095 75.4689 18.1951 74.9888 18.1951Z" fill="#181A1B"/>
<path d="M75.2231 7.07812V4.07247H75.7195V7.07812H75.2231ZM74.3351 4.50054V4.07247H76.6076V4.50054H74.3351ZM76.8537 7.07812V4.07247H77.6142L78.525 6.5362H78.5432L79.4449 4.07247H80.1735V7.07812H79.6999L79.7272 4.57341H79.6954L78.7436 7.07812H78.2745L77.3318 4.57341H77.3L77.3227 7.07812H76.8537Z" fill="#181A1B"/>
</svg>
