<svg width="82" height="26" viewBox="0 0 82 26" fill="none" xmlns="http://www.w3.org/2000/svg">
<path d="M25.1366 6.99355L19.1302 13L25.1366 19.0065L19.1302 25.0129L13.1237 19.0065L7.11728 25.0129H0.959908V19.0065L6.96636 13H0.959908L6.99654 6.99355H0.959908L6.99654 0.987091H25.1366L19.1302 6.99355H25.1366Z" fill="#F8F9FA"/>
<path d="M30.0454 18V13.9939L30.0304 10.1979H31.4708L31.3657 13.1087H31.5908C31.6708 12.4285 31.8059 11.8633 31.9959 11.4132C32.186 10.9531 32.441 10.608 32.7611 10.3779C33.0912 10.1378 33.4813 10.0178 33.9314 10.0178C34.0515 10.0178 34.1765 10.0278 34.3065 10.0478C34.4366 10.0678 34.5816 10.1028 34.7417 10.1528L34.6666 11.8933C34.5066 11.8233 34.3466 11.7733 34.1865 11.7433C34.0265 11.7133 33.8764 11.6983 33.7364 11.6983C33.3463 11.6983 33.0112 11.8183 32.7311 12.0584C32.451 12.2884 32.221 12.6185 32.0409 13.0486C31.8709 13.4788 31.7458 13.9839 31.6658 14.5641V18H30.0454ZM38.3988 18.1951C37.7686 18.1951 37.2135 18.105 36.7333 17.925C36.2632 17.7349 35.8631 17.4649 35.533 17.1148C35.2129 16.7647 34.9679 16.3495 34.7978 15.8694C34.6378 15.3793 34.5577 14.8341 34.5577 14.234C34.5577 13.6238 34.6378 13.0636 34.7978 12.5535C34.9579 12.0434 35.1929 11.5982 35.503 11.2181C35.8231 10.828 36.2132 10.5279 36.6733 10.3179C37.1335 10.1078 37.6636 10.0028 38.2638 10.0028C38.8139 10.0028 39.3091 10.0978 39.7492 10.2879C40.1893 10.4679 40.5544 10.743 40.8445 11.1131C41.1446 11.4732 41.3646 11.9233 41.5047 12.4635C41.6447 12.9936 41.6947 13.6088 41.6547 14.309L35.593 14.369V13.3487L40.6194 13.3037L40.1243 13.9189C40.1743 13.3487 40.1243 12.8736 39.9742 12.4935C39.8242 12.1134 39.6041 11.8283 39.3141 11.6382C39.024 11.4382 38.6789 11.3382 38.2788 11.3382C37.8286 11.3382 37.4435 11.4532 37.1234 11.6833C36.8034 11.9133 36.5583 12.2434 36.3882 12.6735C36.2182 13.0936 36.1332 13.5988 36.1332 14.189C36.1332 15.0892 36.3282 15.7694 36.7183 16.2295C37.1184 16.6896 37.6836 16.9197 38.4138 16.9197C38.7339 16.9197 39.004 16.8797 39.224 16.7997C39.4541 16.7096 39.6441 16.5946 39.7942 16.4546C39.9442 16.3145 40.0593 16.1545 40.1393 15.9744C40.2293 15.7944 40.2893 15.6043 40.3193 15.4043L41.7747 15.6744C41.7047 16.0545 41.5847 16.3996 41.4146 16.7096C41.2546 17.0097 41.0345 17.2748 40.7544 17.5049C40.4744 17.7249 40.1393 17.895 39.7492 18.015C39.3591 18.135 38.9089 18.1951 38.3988 18.1951ZM42.3992 18V13.4387L42.3842 10.1979H43.8095L43.7045 12.9286H43.9296C44.0496 12.2684 44.2247 11.7233 44.4547 11.2932C44.6848 10.853 44.9849 10.5279 45.355 10.3179C45.7251 10.1078 46.1652 10.0028 46.6753 10.0028C47.5556 10.0028 48.2158 10.3129 48.6559 10.9331C49.106 11.5532 49.3311 12.4985 49.3311 13.7688V18H47.6956V13.9189C47.6956 13.0586 47.5656 12.4285 47.3055 12.0284C47.0554 11.6282 46.6703 11.4282 46.1502 11.4282C45.7101 11.4282 45.33 11.5732 45.0099 11.8633C44.6998 12.1434 44.4597 12.5385 44.2897 13.0486C44.1296 13.5488 44.0396 14.1289 44.0196 14.7891V18H42.3992ZM53.1398 18.1951C52.4996 18.1951 51.9444 18.03 51.4743 17.6999C51.0042 17.3698 50.6391 16.8997 50.379 16.2895C50.1189 15.6794 49.9889 14.9442 49.9889 14.0839C49.9889 13.2737 50.1089 12.5635 50.349 11.9533C50.5891 11.3432 50.9392 10.868 51.3993 10.5279C51.8694 10.1879 52.4296 10.0178 53.0798 10.0178C53.6099 10.0178 54.05 10.1278 54.4001 10.3479C54.7602 10.558 55.0503 10.858 55.2704 11.2481C55.4904 11.6382 55.6555 12.0934 55.7655 12.6135H56.0206C55.9605 12.2734 55.9055 11.9433 55.8555 11.6232C55.8155 11.2932 55.7805 10.9781 55.7505 10.678C55.7205 10.3779 55.7055 10.1078 55.7055 9.86776V7.49711H57.3559V14.309V18H55.9155L55.9906 15.7194H55.7655C55.6455 16.2495 55.4704 16.6996 55.2403 17.0697C55.0203 17.4298 54.7352 17.7099 54.3851 17.91C54.035 18.1 53.6199 18.1951 53.1398 18.1951ZM53.5899 16.8147C53.93 16.8147 54.2351 16.7347 54.5051 16.5746C54.7752 16.4146 54.9953 16.2045 55.1653 15.9444C55.3454 15.6844 55.4804 15.4043 55.5704 15.1042C55.6605 14.7941 55.7055 14.499 55.7055 14.219V14.0389C55.7055 13.8389 55.6805 13.6188 55.6305 13.3787C55.5804 13.1387 55.5004 12.9036 55.3904 12.6735C55.2804 12.4435 55.1403 12.2334 54.9703 12.0434C54.8002 11.8433 54.6002 11.6883 54.3701 11.5782C54.14 11.4582 53.88 11.3982 53.5899 11.3982C53.1898 11.3982 52.8447 11.5182 52.5546 11.7583C52.2745 11.9883 52.0595 12.3084 51.9094 12.7185C51.7594 13.1287 51.6844 13.5988 51.6844 14.1289C51.6844 14.6691 51.7594 15.1442 51.9094 15.5543C52.0595 15.9544 52.2745 16.2645 52.5546 16.4846C52.8447 16.7046 53.1898 16.8147 53.5899 16.8147ZM61.9113 18.1951C61.2812 18.1951 60.726 18.105 60.2459 17.925C59.7757 17.7349 59.3756 17.4649 59.0455 17.1148C58.7254 16.7647 58.4804 16.3495 58.3103 15.8694C58.1503 15.3793 58.0703 14.8341 58.0703 14.234C58.0703 13.6238 58.1503 13.0636 58.3103 12.5535C58.4704 12.0434 58.7054 11.5982 59.0155 11.2181C59.3356 10.828 59.7257 10.5279 60.1858 10.3179C60.646 10.1078 61.1761 10.0028 61.7763 10.0028C62.3264 10.0028 62.8216 10.0978 63.2617 10.2879C63.7018 10.4679 64.0669 10.743 64.357 11.1131C64.6571 11.4732 64.8771 11.9233 65.0172 12.4635C65.1572 12.9936 65.2072 13.6088 65.1672 14.309L59.1056 14.369V13.3487L64.1319 13.3037L63.6368 13.9189C63.6868 13.3487 63.6368 12.8736 63.4868 12.4935C63.3367 12.1134 63.1167 11.8283 62.8266 11.6382C62.5365 11.4382 62.1914 11.3382 61.7913 11.3382C61.3412 11.3382 60.9561 11.4532 60.636 11.6833C60.3159 11.9133 60.0708 12.2434 59.9008 12.6735C59.7307 13.0936 59.6457 13.5988 59.6457 14.189C59.6457 15.0892 59.8408 15.7694 60.2309 16.2295C60.631 16.6896 61.1961 16.9197 61.9263 16.9197C62.2464 16.9197 62.5165 16.8797 62.7366 16.7997C62.9666 16.7096 63.1567 16.5946 63.3067 16.4546C63.4567 16.3145 63.5718 16.1545 63.6518 15.9744C63.7418 15.7944 63.8018 15.6043 63.8319 15.4043L65.2873 15.6744C65.2172 16.0545 65.0972 16.3996 64.9272 16.7096C64.7671 17.0097 64.547 17.2748 64.267 17.5049C63.9869 17.7249 63.6518 17.895 63.2617 18.015C62.8716 18.135 62.4215 18.1951 61.9113 18.1951ZM67.6564 18L64.9406 10.2129H66.7261L68.7067 16.6496H68.8867L70.8523 10.2129H72.5927L69.862 18H67.6564ZM75.4888 18.1951C74.5985 18.1951 73.9333 17.89 73.4932 17.2798C73.0531 16.6596 72.833 15.7194 72.833 14.459V10.1979H74.4835V14.339C74.4835 15.1692 74.6035 15.7844 74.8436 16.1845C75.0837 16.5846 75.4688 16.7847 75.9989 16.7847C76.309 16.7847 76.5791 16.7096 76.8091 16.5596C77.0492 16.4096 77.2543 16.1945 77.4243 15.9144C77.6044 15.6343 77.7444 15.2943 77.8444 14.8941C77.9444 14.494 78.0095 14.0389 78.0395 13.5288V10.1979H79.6599V14.5941L79.6749 18H78.2645L78.3546 15.3143H78.1445C78.0245 15.9844 77.8494 16.5346 77.6194 16.9647C77.3893 17.3848 77.0942 17.6949 76.7341 17.895C76.384 18.095 75.9689 18.1951 75.4888 18.1951Z" fill="#F8F9FA"/>
<path d="M75.7231 7.07879V4.07313H76.2195V7.07879H75.7231ZM74.8351 4.50121V4.07313H77.1076V4.50121H74.8351ZM77.3537 7.07879V4.07313H78.1142L79.025 6.53686H79.0432L79.9449 4.07313H80.6735V7.07879H80.1999L80.2272 4.57407H80.1954L79.2436 7.07879H78.7745L77.8318 4.57407H77.8L77.8227 7.07879H77.3537Z" fill="#F8F9FA"/>
</svg>
