<svg width="19" height="18" viewBox="0 0 19 18" fill="none" xmlns="http://www.w3.org/2000/svg">
<path d="M6.5751 9.00039C7.35086 9.00039 8.09484 8.69222 8.64338 8.14368C9.19193 7.59513 9.5001 6.85115 9.5001 6.07539C9.5001 5.29963 9.19193 4.55565 8.64338 4.0071C8.09484 3.45856 7.35086 3.15039 6.5751 3.15039C5.79934 3.15039 5.05535 3.45856 4.50681 4.0071C3.95827 4.55565 3.6501 5.29963 3.6501 6.07539C3.6501 6.85115 3.95827 7.59513 4.50681 8.14368C5.05535 8.69222 5.79934 9.00039 6.5751 9.00039ZM11.6934 13.6309C12.1704 13.8262 12.777 13.9504 13.5492 13.9504C17.1492 13.9504 17.1492 11.2504 17.1492 11.2504C17.1492 10.8925 17.0071 10.5493 16.7541 10.2961C16.5011 10.043 16.158 9.90063 15.8001 9.90039H11.6349C11.9886 10.3288 12.201 10.8769 12.201 11.4754V11.7958C12.1991 11.8716 12.194 11.9472 12.1857 12.0226C12.1244 12.5848 11.9568 13.1304 11.6934 13.6309ZM15.8001 6.75039C15.8001 7.34713 15.563 7.91942 15.1411 8.34138C14.7191 8.76334 14.1468 9.00039 13.5501 9.00039C12.9534 9.00039 12.3811 8.76334 11.9591 8.34138C11.5372 7.91942 11.3001 7.34713 11.3001 6.75039C11.3001 6.15365 11.5372 5.58136 11.9591 5.1594C12.3811 4.73744 12.9534 4.50039 13.5501 4.50039C14.1468 4.50039 14.7191 4.73744 15.1411 5.1594C15.563 5.58136 15.8001 6.15365 15.8001 6.75039ZM1.8501 11.7004C1.8501 11.223 2.03974 10.7652 2.37731 10.4276C2.71487 10.09 3.17271 9.90039 3.6501 9.90039H9.5001C9.97749 9.90039 10.4353 10.09 10.7729 10.4276C11.1105 10.7652 11.3001 11.223 11.3001 11.7004C11.3001 11.7004 11.3001 15.3004 6.5751 15.3004C1.8501 15.3004 1.8501 11.7004 1.8501 11.7004Z" fill="#343A40"/>
</svg>
