<svg width="1191" height="221" viewBox="0 0 1191 221" fill="none" xmlns="http://www.w3.org/2000/svg">
<mask id="path-1-outside-1_18_454" maskUnits="userSpaceOnUse" x="0" y="0" width="1191" height="221" fill="black">
<rect fill="white" width="1191" height="221"/>
<path d="M2.2 214V131.5V55.6H43.3L43.6 115.9H47.2C48.4 99.9 50.8 87.3 54.4 78.1C58 68.7 62.7 62 68.5 58C74.5 54 81.4 52 89.2 52C92.2 52 95.4 52.4 98.8 53.2C102.2 53.8 105.6 55 109 56.8L106.6 109.9C102.6 107.7 98.6 106.1 94.6 105.1C90.6 103.9 86.8 103.3 83.2 103.3C76.4 103.3 70.6 105.1 65.8 108.7C61 112.1 57.3 117.2 54.7 124C52.1 130.6 50.7 138.8 50.5 148.6V214H2.2ZM198.789 218.2C184.189 218.2 171.789 216.2 161.589 212.2C151.389 208 142.989 202.3 136.389 195.1C129.989 187.7 125.289 179.2 122.289 169.6C119.289 159.8 117.789 149.3 117.789 138.1C117.789 126.3 119.289 115.2 122.289 104.8C125.489 94.2 130.289 85 136.689 77.2C143.089 69.2 151.189 62.9 160.989 58.3C170.789 53.7 182.289 51.4 195.489 51.4C208.889 51.4 220.389 53.7 229.989 58.3C239.789 62.7 247.689 69.1 253.689 77.5C259.689 85.7 263.689 95.4 265.689 106.6C267.689 117.8 267.789 130 265.989 143.2L148.389 145V118.9L231.789 117.4L222.189 131.8C223.389 122.4 223.089 114.6 221.289 108.4C219.489 102 216.389 97.2 211.989 94C207.789 90.8 202.389 89.2 195.789 89.2C188.589 89.2 182.589 91.1 177.789 94.9C173.189 98.7 169.789 104.1 167.589 111.1C165.389 118.1 164.289 126.4 164.289 136C164.289 152.2 167.189 164 172.989 171.4C178.989 178.8 187.589 182.5 198.789 182.5C203.789 182.5 207.889 181.9 211.089 180.7C214.489 179.5 217.189 177.8 219.189 175.6C221.389 173.2 222.889 170.4 223.689 167.2C224.689 164 225.289 160.5 225.489 156.7L269.289 161.2C269.089 168 267.789 174.8 265.389 181.6C263.189 188.2 259.389 194.3 253.989 199.9C248.589 205.3 241.289 209.7 232.089 213.1C223.089 216.5 211.989 218.2 198.789 218.2ZM289.309 214V122.8V55.6H329.509L329.809 115H333.409C335.009 100.6 337.909 88.7 342.109 79.3C346.309 69.9 352.109 62.9 359.509 58.3C366.909 53.7 376.109 51.4 387.109 51.4C404.709 51.4 418.009 57.4 427.009 69.4C436.009 81.2 440.509 99.2 440.509 123.4V214H391.909V129.4C391.909 117 390.009 107.8 386.209 101.8C382.609 95.8 376.909 92.8 369.109 92.8C362.709 92.8 357.109 95 352.309 99.4C347.709 103.6 344.109 110.2 341.509 119.2C338.909 128 337.609 139.4 337.609 153.4V214H289.309ZM522.663 218.2C510.863 218.2 500.263 215.1 490.863 208.9C481.463 202.5 474.063 193 468.663 180.4C463.263 167.8 460.563 152.1 460.563 133.3C460.563 115.9 462.963 101.1 467.763 88.9C472.563 76.7 479.463 67.5 488.463 61.3C497.463 54.9 508.263 51.7 520.863 51.7C530.263 51.7 538.463 53.6 545.463 57.4C552.463 61 558.263 66.8 562.863 74.8C567.463 82.6 570.863 92.8 573.063 105.4H576.963C575.963 98.6 574.863 92 573.663 85.6C572.663 79 571.863 72.8 571.263 67C570.863 61 570.663 55.5 570.663 50.5V2.19999H619.263V151.9V214H577.563V165.7H573.963C571.763 177.5 568.363 187.3 563.763 195.1C559.363 202.7 553.763 208.5 546.963 212.5C540.163 216.3 532.063 218.2 522.663 218.2ZM540.063 179.5C544.463 179.5 548.563 178.5 552.363 176.5C556.163 174.5 559.463 171.6 562.263 167.8C565.063 164 567.163 159.5 568.563 154.3C570.163 149.1 570.963 143.2 570.963 136.6V133.3C570.963 128.1 570.363 123.3 569.163 118.9C568.163 114.3 566.663 110.3 564.663 106.9C562.663 103.5 560.263 100.7 557.463 98.5C554.863 96.1 551.963 94.4 548.763 93.4C545.763 92.2 542.663 91.6 539.463 91.6C533.063 91.6 527.663 93.6 523.263 97.6C519.063 101.6 515.863 107 513.663 113.8C511.463 120.4 510.363 127.7 510.363 135.7C510.363 143.9 511.563 151.3 513.963 157.9C516.363 164.5 519.763 169.8 524.163 173.8C528.563 177.6 533.863 179.5 540.063 179.5ZM668.673 217.9C658.473 217.9 650.773 215.7 645.573 211.3C640.573 206.9 638.073 200.1 638.073 190.9C638.073 181.5 640.573 174.6 645.573 170.2C650.773 165.8 658.473 163.6 668.673 163.6C679.073 163.6 686.873 165.8 692.073 170.2C697.273 174.6 699.873 181.5 699.873 190.9C699.873 208.9 689.473 217.9 668.673 217.9ZM792.637 218.2C778.037 218.2 765.637 216.2 755.437 212.2C745.237 208 736.837 202.3 730.237 195.1C723.837 187.7 719.137 179.2 716.137 169.6C713.137 159.8 711.637 149.3 711.637 138.1C711.637 126.3 713.137 115.2 716.137 104.8C719.337 94.2 724.137 85 730.537 77.2C736.937 69.2 745.037 62.9 754.837 58.3C764.637 53.7 776.137 51.4 789.337 51.4C802.737 51.4 814.237 53.7 823.837 58.3C833.637 62.7 841.537 69.1 847.537 77.5C853.537 85.7 857.537 95.4 859.537 106.6C861.537 117.8 861.637 130 859.837 143.2L742.237 145V118.9L825.637 117.4L816.037 131.8C817.237 122.4 816.937 114.6 815.137 108.4C813.337 102 810.237 97.2 805.837 94C801.637 90.8 796.237 89.2 789.637 89.2C782.437 89.2 776.437 91.1 771.637 94.9C767.037 98.7 763.637 104.1 761.437 111.1C759.237 118.1 758.137 126.4 758.137 136C758.137 152.2 761.037 164 766.837 171.4C772.837 178.8 781.437 182.5 792.637 182.5C797.637 182.5 801.737 181.9 804.937 180.7C808.337 179.5 811.037 177.8 813.037 175.6C815.237 173.2 816.737 170.4 817.537 167.2C818.537 164 819.137 160.5 819.337 156.7L863.137 161.2C862.937 168 861.637 174.8 859.237 181.6C857.037 188.2 853.237 194.3 847.837 199.9C842.437 205.3 835.137 209.7 825.937 213.1C816.937 216.5 805.837 218.2 792.637 218.2ZM914.198 214L865.298 55.6H917.498L945.698 174.4H948.098L977.198 55.6H1026.7L977.498 214H914.198ZM1091.77 218.2C1073.97 218.2 1060.77 212.1 1052.17 199.9C1043.57 187.7 1039.27 169 1039.27 143.8V55.6H1087.87V141.7C1087.87 154.1 1089.67 163 1093.27 168.4C1096.87 173.8 1102.17 176.5 1109.17 176.5C1113.77 176.5 1117.97 175.3 1121.77 172.9C1125.57 170.5 1128.87 166.9 1131.67 162.1C1134.47 157.3 1136.57 151.4 1137.97 144.4C1139.37 137.2 1140.07 128.9 1140.07 119.5V55.6H1188.67V144.7V214H1148.17L1147.87 156.1H1144.57C1142.97 170.5 1139.97 182.3 1135.57 191.5C1131.37 200.7 1125.57 207.5 1118.17 211.9C1110.97 216.1 1102.17 218.2 1091.77 218.2Z"/>
</mask>
<path d="M2.2 214H0.200001V216H2.2V214ZM2.2 55.6V53.6H0.200001V55.6H2.2ZM43.3 55.6L45.3 55.59L45.2901 53.6H43.3V55.6ZM43.6 115.9L41.6 115.91L41.6099 117.9H43.6V115.9ZM47.2 115.9V117.9H49.0556L49.1944 116.05L47.2 115.9ZM54.4 78.1L56.2625 78.8288L56.2651 78.8221L56.2677 78.8153L54.4 78.1ZM68.5 58L67.3906 56.3359L67.3775 56.3446L67.3645 56.3536L68.5 58ZM98.8 53.2L98.3419 55.1468L98.3969 55.1598L98.4524 55.1696L98.8 53.2ZM109 56.8L110.998 56.8903L111.055 55.625L109.936 55.0324L109 56.8ZM106.6 109.9L105.636 111.652L108.453 113.202L108.598 109.99L106.6 109.9ZM94.6 105.1L94.0253 107.016L94.0698 107.029L94.1149 107.04L94.6 105.1ZM65.8 108.7L66.956 110.332L66.9782 110.316L67 110.3L65.8 108.7ZM54.7 124L56.5608 124.733L56.5645 124.724L56.5681 124.714L54.7 124ZM50.5 148.6L48.5004 148.559L48.5 148.58V148.6H50.5ZM50.5 214V216H52.5V214H50.5ZM4.2 214V131.5H0.200001V214H4.2ZM4.2 131.5V55.6H0.200001V131.5H4.2ZM2.2 57.6H43.3V53.6H2.2V57.6ZM41.3 55.6099L41.6 115.91L45.6 115.89L45.3 55.59L41.3 55.6099ZM43.6 117.9H47.2V113.9H43.6V117.9ZM49.1944 116.05C50.3876 100.141 52.766 87.7644 56.2625 78.8288L52.5375 77.3712C48.8341 86.8356 46.4124 99.6592 45.2056 115.75L49.1944 116.05ZM56.2677 78.8153C59.7826 69.6375 64.2825 63.3381 69.6355 59.6464L67.3645 56.3536C61.1175 60.6619 56.2174 67.7625 52.5323 77.3847L56.2677 78.8153ZM69.6094 59.6641C75.2539 55.9011 81.7611 54 89.2 54V50C81.0389 50 73.7461 52.0989 67.3906 56.3359L69.6094 59.6641ZM89.2 54C92.023 54 95.0682 54.3765 98.3419 55.1468L99.2581 51.2532C95.7318 50.4235 92.377 50 89.2 50V54ZM98.4524 55.1696C101.625 55.7294 104.828 56.8541 108.064 58.5676L109.936 55.0324C106.372 53.1459 102.775 51.8706 99.1476 51.2304L98.4524 55.1696ZM107.002 56.7097L104.602 109.81L108.598 109.99L110.998 56.8903L107.002 56.7097ZM107.564 108.148C103.429 105.873 99.2689 104.206 95.0851 103.16L94.1149 107.04C97.9312 107.994 101.771 109.527 105.636 111.652L107.564 108.148ZM95.1747 103.184C91.0174 101.937 87.0229 101.3 83.2 101.3V105.3C86.5771 105.3 90.1826 105.863 94.0253 107.016L95.1747 103.184ZM83.2 101.3C76.0276 101.3 69.7916 103.206 64.6 107.1L67 110.3C71.4084 106.994 76.7724 105.3 83.2 105.3V101.3ZM64.644 107.068C59.4517 110.746 55.5395 116.204 52.8319 123.286L56.5681 124.714C59.0605 118.196 62.5483 113.454 66.956 110.332L64.644 107.068ZM52.8392 123.267C50.126 130.154 48.7035 138.606 48.5004 148.559L52.4996 148.641C52.6965 138.994 54.074 131.046 56.5608 124.733L52.8392 123.267ZM48.5 148.6V214H52.5V148.6H48.5ZM50.5 212H2.2V216H50.5V212ZM161.589 212.2L160.828 214.049L160.843 214.056L160.859 214.062L161.589 212.2ZM136.389 195.1L134.876 196.408L134.895 196.43L134.915 196.451L136.389 195.1ZM122.289 169.6L120.377 170.185L120.38 170.197L122.289 169.6ZM122.289 104.8L120.374 104.222L120.371 104.234L120.367 104.246L122.289 104.8ZM136.689 77.2L138.235 78.4686L138.243 78.4591L138.251 78.4494L136.689 77.2ZM160.989 58.3L160.139 56.4895L160.989 58.3ZM229.989 58.3L229.125 60.1036L229.147 60.1143L229.17 60.1245L229.989 58.3ZM253.689 77.5L252.062 78.6625L252.068 78.6718L252.075 78.681L253.689 77.5ZM265.689 106.6L263.72 106.952L265.689 106.6ZM265.989 143.2L266.02 145.2L267.738 145.173L267.971 143.47L265.989 143.2ZM148.389 145H146.389V147.031L148.42 147L148.389 145ZM148.389 118.9L148.353 116.9L146.389 116.936V118.9H148.389ZM231.789 117.4L233.453 118.509L235.572 115.332L231.753 115.4L231.789 117.4ZM222.189 131.8L220.205 131.547L223.853 132.909L222.189 131.8ZM221.289 108.4L219.364 108.941L219.366 108.95L219.368 108.958L221.289 108.4ZM211.989 94L210.777 95.5909L210.795 95.6044L210.813 95.6175L211.989 94ZM177.789 94.9L176.548 93.3319L176.531 93.3448L176.515 93.3581L177.789 94.9ZM167.589 111.1L169.497 111.7L167.589 111.1ZM172.989 171.4L171.415 172.634L171.425 172.647L171.436 172.66L172.989 171.4ZM211.089 180.7L210.423 178.814L210.405 178.82L210.387 178.827L211.089 180.7ZM219.189 175.6L217.715 174.249L217.709 174.255L219.189 175.6ZM223.689 167.2L221.78 166.603L221.763 166.659L221.749 166.715L223.689 167.2ZM225.489 156.7L225.693 154.71L223.602 154.496L223.492 156.595L225.489 156.7ZM269.289 161.2L271.288 161.259L271.343 159.4L269.493 159.21L269.289 161.2ZM265.389 181.6L263.503 180.934L263.497 180.951L263.492 180.968L265.389 181.6ZM253.989 199.9L255.403 201.314L255.416 201.301L255.429 201.288L253.989 199.9ZM232.089 213.1L231.396 211.224L231.389 211.227L231.382 211.229L232.089 213.1ZM198.789 216.2C184.361 216.2 172.223 214.222 162.319 210.338L160.859 214.062C171.355 218.178 184.018 220.2 198.789 220.2V216.2ZM162.351 210.351C152.387 206.248 144.241 200.706 137.863 193.749L134.915 196.451C141.737 203.894 150.392 209.752 160.828 214.049L162.351 210.351ZM137.902 193.792C131.686 186.605 127.119 178.349 124.198 169.003L120.38 170.197C123.46 180.051 128.292 188.795 134.876 196.408L137.902 193.792ZM124.201 169.015C121.265 159.421 119.789 149.12 119.789 138.1H115.789C115.789 149.48 117.313 160.179 120.377 170.185L124.201 169.015ZM119.789 138.1C119.789 126.471 121.267 115.559 124.211 105.354L120.367 104.246C117.311 114.841 115.789 126.129 115.789 138.1H119.789ZM124.204 105.378C127.335 95.0055 132.018 86.0459 138.235 78.4686L135.143 75.9314C128.56 83.9541 123.643 93.3944 120.374 104.222L124.204 105.378ZM138.251 78.4494C144.449 70.702 152.3 64.588 161.839 60.1105L160.139 56.4895C150.078 61.212 141.729 67.698 135.127 75.9506L138.251 78.4494ZM161.839 60.1105C171.321 55.6596 182.52 53.4 195.489 53.4V49.4C182.058 49.4 170.257 51.7404 160.139 56.4895L161.839 60.1105ZM195.489 53.4C208.665 53.4 219.855 55.6619 229.125 60.1036L230.853 56.4964C220.923 51.7381 209.113 49.4 195.489 49.4V53.4ZM229.17 60.1245C238.66 64.3855 246.276 70.5629 252.062 78.6625L255.317 76.3375C249.102 67.6371 240.918 61.0145 230.808 56.4754L229.17 60.1245ZM252.075 78.681C257.875 86.6071 261.767 96.0152 263.72 106.952L267.658 106.248C265.611 94.7847 261.504 84.7929 255.303 76.319L252.075 78.681ZM263.72 106.952C265.678 117.915 265.784 129.902 264.007 142.93L267.971 143.47C269.794 130.098 269.7 117.685 267.658 106.248L263.72 106.952ZM265.958 141.2L148.358 143L148.42 147L266.02 145.2L265.958 141.2ZM150.389 145V118.9H146.389V145H150.389ZM148.425 120.9L231.825 119.4L231.753 115.4L148.353 116.9L148.425 120.9ZM230.125 116.291L220.525 130.691L223.853 132.909L233.453 118.509L230.125 116.291ZM224.173 132.053C225.393 122.498 225.113 114.399 223.21 107.842L219.368 108.958C221.065 114.801 221.385 122.302 220.205 131.547L224.173 132.053ZM223.214 107.859C221.32 101.125 218.004 95.9015 213.165 92.3825L210.813 95.6175C214.774 98.4985 217.658 102.875 219.364 108.941L223.214 107.859ZM213.201 92.4091C208.574 88.8834 202.716 87.2 195.789 87.2V91.2C202.062 91.2 207.005 92.7166 210.777 95.5909L213.201 92.4091ZM195.789 87.2C188.221 87.2 181.761 89.2049 176.548 93.3319L179.03 96.4681C183.417 92.9951 188.957 91.2 195.789 91.2V87.2ZM176.515 93.3581C171.555 97.4555 167.97 103.217 165.681 110.5L169.497 111.7C171.608 104.983 174.823 99.9445 179.063 96.4419L176.515 93.3581ZM165.681 110.5C163.405 117.744 162.289 126.256 162.289 136H166.289C166.289 126.544 167.374 118.456 169.497 111.7L165.681 110.5ZM162.289 136C162.289 152.356 165.201 164.706 171.415 172.634L174.563 170.166C169.177 163.294 166.289 152.044 166.289 136H162.289ZM171.436 172.66C177.884 180.613 187.104 184.5 198.789 184.5V180.5C188.074 180.5 180.094 176.987 174.543 170.14L171.436 172.66ZM198.789 184.5C203.928 184.5 208.288 183.886 211.791 182.573L210.387 178.827C207.49 179.914 203.65 180.5 198.789 180.5V184.5ZM211.755 182.586C215.401 181.299 218.404 179.437 220.669 176.945L217.709 174.255C215.974 176.163 213.577 177.701 210.423 178.814L211.755 182.586ZM220.663 176.951C223.091 174.303 224.75 171.204 225.629 167.685L221.749 166.715C221.028 169.596 219.687 172.097 217.715 174.249L220.663 176.951ZM225.598 167.797C226.654 164.417 227.279 160.75 227.486 156.805L223.492 156.595C223.299 160.25 222.724 163.583 221.78 166.603L225.598 167.797ZM225.285 158.69L269.085 163.19L269.493 159.21L225.693 154.71L225.285 158.69ZM267.29 161.141C267.096 167.722 265.838 174.318 263.503 180.934L267.275 182.266C269.74 175.282 271.082 168.278 271.288 161.259L267.29 161.141ZM263.492 180.968C261.397 187.253 257.767 193.101 252.549 198.512L255.429 201.288C261.011 195.499 264.982 189.147 267.286 182.232L263.492 180.968ZM252.575 198.486C247.428 203.632 240.399 207.897 231.396 211.224L232.782 214.976C242.179 211.503 249.75 206.968 255.403 201.314L252.575 198.486ZM231.382 211.229C222.675 214.518 211.831 216.2 198.789 216.2V220.2C212.147 220.2 223.503 218.482 232.796 214.971L231.382 211.229ZM289.309 214H287.309V216H289.309V214ZM289.309 55.6V53.6H287.309V55.6H289.309ZM329.509 55.6L331.509 55.5899L331.499 53.6H329.509V55.6ZM329.809 115L327.809 115.01L327.819 117H329.809V115ZM333.409 115V117H335.199L335.397 115.221L333.409 115ZM342.109 79.3L340.283 78.4841L342.109 79.3ZM359.509 58.3L358.454 56.6014V56.6014L359.509 58.3ZM427.009 69.4L425.409 70.6L425.414 70.6065L425.419 70.6129L427.009 69.4ZM440.509 214V216H442.509V214H440.509ZM391.909 214H389.909V216H391.909V214ZM386.209 101.8L384.494 102.829L384.507 102.85L384.52 102.87L386.209 101.8ZM352.309 99.4L353.658 100.877L353.661 100.874L352.309 99.4ZM341.509 119.2L343.427 119.767L343.431 119.755L341.509 119.2ZM337.609 214V216H339.609V214H337.609ZM291.309 214V122.8H287.309V214H291.309ZM291.309 122.8V55.6H287.309V122.8H291.309ZM289.309 57.6H329.509V53.6H289.309V57.6ZM327.509 55.6101L327.809 115.01L331.809 114.99L331.509 55.5899L327.509 55.6101ZM329.809 117H333.409V113H329.809V117ZM335.397 115.221C336.983 100.95 339.846 89.2676 343.935 80.1159L340.283 78.4841C335.972 88.1324 333.036 100.25 331.422 114.779L335.397 115.221ZM343.935 80.1159C348.003 71.0128 353.562 64.3518 360.565 59.9986L358.454 56.6014C350.657 61.4482 344.616 68.7872 340.283 78.4841L343.935 80.1159ZM360.565 59.9986C367.575 55.6412 376.385 53.4 387.109 53.4V49.4C375.833 49.4 366.244 51.7588 358.454 56.6014L360.565 59.9986ZM387.109 53.4C404.203 53.4 416.856 59.1948 425.409 70.6L428.609 68.2C419.163 55.6051 405.215 49.4 387.109 49.4V53.4ZM425.419 70.6129C434.032 81.9054 438.509 99.3839 438.509 123.4H442.509C442.509 99.0161 437.987 80.4946 428.6 68.1871L425.419 70.6129ZM438.509 123.4V214H442.509V123.4H438.509ZM440.509 212H391.909V216H440.509V212ZM393.909 214V129.4H389.909V214H393.909ZM393.909 129.4C393.909 116.869 392.003 107.209 387.899 100.73L384.52 102.87C388.016 108.391 389.909 117.131 389.909 129.4H393.909ZM387.924 100.771C383.916 94.0901 377.515 90.8 369.109 90.8V94.8C376.303 94.8 381.303 97.5099 384.494 102.829L387.924 100.771ZM369.109 90.8C362.199 90.8 356.12 93.1941 350.958 97.9257L353.661 100.874C358.099 96.8059 363.219 94.8 369.109 94.8V90.8ZM350.961 97.923C345.984 102.467 342.242 109.457 339.588 118.645L343.431 119.755C345.976 110.943 349.434 104.733 353.658 100.877L350.961 97.923ZM339.591 118.633C336.916 127.687 335.609 139.298 335.609 153.4H339.609C339.609 139.502 340.902 128.313 343.427 119.767L339.591 118.633ZM335.609 153.4V214H339.609V153.4H335.609ZM337.609 212H289.309V216H337.609V212ZM490.862 208.9L489.737 210.553L489.749 210.561L489.761 210.57L490.862 208.9ZM468.663 180.4L466.824 181.188L468.663 180.4ZM467.763 88.9L465.901 88.1677V88.1677L467.763 88.9ZM488.462 61.3L489.597 62.947L489.609 62.9386L489.622 62.9299L488.462 61.3ZM545.463 57.4L544.508 59.1577L544.528 59.1684L544.548 59.1786L545.463 57.4ZM562.862 74.8L561.129 75.7969L561.134 75.8065L561.14 75.816L562.862 74.8ZM573.062 105.4L571.092 105.744L571.381 107.4H573.062V105.4ZM576.963 105.4V107.4H579.278L578.941 105.109L576.963 105.4ZM573.662 85.6L571.685 85.8996L571.69 85.9342L571.697 85.9686L573.662 85.6ZM571.263 67L569.267 67.133L569.269 67.1695L569.273 67.2058L571.263 67ZM570.662 2.19999V0.199991H568.662V2.19999H570.662ZM619.263 2.19999H621.263V0.199991H619.263V2.19999ZM619.263 214V216H621.263V214H619.263ZM577.562 214H575.562V216H577.562V214ZM577.562 165.7H579.562V163.7H577.562V165.7ZM573.963 165.7V163.7H572.301L571.996 165.333L573.963 165.7ZM563.763 195.1L562.04 194.084L562.036 194.091L562.032 194.098L563.763 195.1ZM546.963 212.5L547.938 214.246L547.957 214.235L547.977 214.224L546.963 212.5ZM552.362 176.5L553.294 178.27L552.362 176.5ZM562.263 167.8L560.652 166.614L562.263 167.8ZM568.562 154.3L566.651 153.712L566.641 153.746L566.631 153.78L568.562 154.3ZM569.163 118.9L567.208 119.325L567.219 119.376L567.233 119.426L569.163 118.9ZM564.662 106.9L562.939 107.914L564.662 106.9ZM557.463 98.5L556.106 99.9696L556.164 100.024L556.227 100.073L557.463 98.5ZM548.763 93.4L548.02 95.257L548.092 95.2858L548.166 95.309L548.763 93.4ZM523.263 97.6L521.917 96.1201L521.9 96.1357L521.883 96.1517L523.263 97.6ZM513.662 113.8L515.56 114.432L515.563 114.424L515.565 114.416L513.662 113.8ZM513.963 157.9L512.083 158.583L513.963 157.9ZM524.162 173.8L522.817 175.28L522.836 175.297L522.855 175.314L524.162 173.8ZM522.662 216.2C511.234 216.2 501.021 213.204 491.964 207.23L489.761 210.57C499.504 216.996 510.491 220.2 522.662 220.2V216.2ZM491.988 207.247C482.963 201.102 475.782 191.934 470.501 179.612L466.824 181.188C472.343 194.066 479.962 203.898 489.737 210.553L491.988 207.247ZM470.501 179.612C465.239 167.335 462.562 151.923 462.562 133.3H458.562C458.562 152.277 461.286 168.265 466.824 181.188L470.501 179.612ZM462.562 133.3C462.562 116.073 464.94 101.536 469.624 89.6322L465.901 88.1677C460.985 100.664 458.562 115.727 458.562 133.3H462.562ZM469.624 89.6322C474.307 77.7275 480.986 68.8794 489.597 62.947L487.328 59.653C477.939 66.1206 470.818 75.6724 465.901 88.1677L469.624 89.6322ZM489.622 62.9299C498.237 56.8036 508.617 53.7 520.862 53.7V49.7C507.908 49.7 496.688 52.9964 487.303 59.6701L489.622 62.9299ZM520.862 53.7C529.989 53.7 537.85 55.5431 544.508 59.1577L546.417 55.6423C539.075 51.6569 530.536 49.7 520.862 49.7V53.7ZM544.548 59.1786C551.15 62.5738 556.687 68.0723 561.129 75.7969L564.596 73.8031C559.838 65.5277 553.775 59.4262 546.377 55.6214L544.548 59.1786ZM561.14 75.816C565.578 83.3423 568.918 93.2909 571.092 105.744L575.033 105.056C572.807 92.3091 569.347 81.8577 564.585 73.784L561.14 75.816ZM573.062 107.4H576.963V103.4H573.062V107.4ZM578.941 105.109C577.938 98.2845 576.833 91.6586 575.628 85.2314L571.697 85.9686C572.892 92.3414 573.987 98.9155 574.984 105.691L578.941 105.109ZM575.64 85.3004C574.644 78.7272 573.848 72.5587 573.252 66.7942L569.273 67.2058C569.877 73.0412 570.681 79.2728 571.685 85.8996L575.64 85.3004ZM573.258 66.867C572.86 60.9027 572.662 55.4478 572.662 50.5H568.662C568.662 55.5522 568.865 61.0973 569.267 67.133L573.258 66.867ZM572.662 50.5V2.19999H568.662V50.5H572.662ZM570.662 4.19999H619.263V0.199991H570.662V4.19999ZM617.263 2.19999V151.9H621.263V2.19999H617.263ZM617.263 151.9V214H621.263V151.9H617.263ZM619.263 212H577.562V216H619.263V212ZM579.562 214V165.7H575.562V214H579.562ZM577.562 163.7H573.963V167.7H577.562V163.7ZM571.996 165.333C569.826 176.975 566.49 186.538 562.04 194.084L565.485 196.116C570.235 188.062 573.699 178.025 575.929 166.067L571.996 165.333ZM562.032 194.098C557.784 201.434 552.419 206.97 545.948 210.776L547.977 214.224C555.106 210.03 560.941 203.966 565.493 196.102L562.032 194.098ZM545.987 210.754C539.541 214.356 531.791 216.2 522.662 216.2V220.2C532.334 220.2 540.784 218.244 547.938 214.246L545.987 210.754ZM540.062 181.5C544.779 181.5 549.2 180.425 553.294 178.27L551.431 174.73C547.925 176.575 544.146 177.5 540.062 177.5V181.5ZM553.294 178.27C557.387 176.116 560.911 173.005 563.873 168.986L560.652 166.614C558.014 170.195 554.938 172.884 551.431 174.73L553.294 178.27ZM563.873 168.986C566.839 164.96 569.038 160.227 570.494 154.82L566.631 153.78C565.287 158.773 563.286 163.04 560.652 166.614L563.873 168.986ZM570.474 154.888C572.144 149.462 572.963 143.358 572.963 136.6H568.963C568.963 143.042 568.181 148.738 566.651 153.712L570.474 154.888ZM572.963 136.6V133.3H568.963V136.6H572.963ZM572.963 133.3C572.963 127.947 572.345 122.967 571.092 118.374L567.233 119.426C568.38 123.633 568.963 128.253 568.963 133.3H572.963ZM571.117 118.475C570.08 113.707 568.512 109.5 566.386 105.886L562.939 107.914C564.813 111.1 566.245 114.893 567.208 119.325L571.117 118.475ZM566.386 105.886C564.273 102.294 561.714 99.2972 558.698 96.9274L556.227 100.073C558.811 102.103 561.052 104.706 562.939 107.914L566.386 105.886ZM558.819 97.0304C556.014 94.4408 552.857 92.5843 549.359 91.491L548.166 95.309C551.068 96.2157 553.711 97.7591 556.106 99.9696L558.819 97.0304ZM549.505 91.543C546.271 90.2495 542.919 89.6 539.463 89.6V93.6C542.406 93.6 545.254 94.1505 548.02 95.257L549.505 91.543ZM539.463 89.6C532.606 89.6 526.715 91.7586 521.917 96.1201L524.608 99.0799C528.61 95.4414 533.519 93.6 539.463 93.6V89.6ZM521.883 96.1517C517.392 100.429 514.039 106.14 511.76 113.184L515.565 114.416C517.686 107.86 520.733 102.771 524.642 99.0483L521.883 96.1517ZM511.765 113.168C509.488 119.999 508.362 127.517 508.362 135.7H512.362C512.362 127.883 513.437 120.801 515.56 114.432L511.765 113.168ZM508.362 135.7C508.362 144.095 509.591 151.731 512.083 158.583L515.842 157.217C513.534 150.869 512.362 143.705 512.362 135.7H508.362ZM512.083 158.583C514.574 165.433 518.137 171.025 522.817 175.28L525.508 172.32C521.388 168.575 518.151 163.567 515.842 157.217L512.083 158.583ZM522.855 175.314C527.644 179.449 533.417 181.5 540.062 181.5V177.5C534.308 177.5 529.481 175.751 525.47 172.286L522.855 175.314ZM645.573 211.3L644.252 212.801L644.267 212.814L644.282 212.827L645.573 211.3ZM645.573 170.2L644.282 168.673L644.267 168.686L644.252 168.699L645.573 170.2ZM692.073 170.2L690.782 171.727L692.073 170.2ZM668.673 215.9C658.719 215.9 651.562 213.747 646.865 209.773L644.282 212.827C649.985 217.653 658.228 219.9 668.673 219.9V215.9ZM646.895 209.799C642.472 205.907 640.073 199.753 640.073 190.9H636.073C636.073 200.447 638.675 207.893 644.252 212.801L646.895 209.799ZM640.073 190.9C640.073 181.831 642.481 175.586 646.895 171.701L644.252 168.699C638.666 173.614 636.073 181.169 636.073 190.9H640.073ZM646.865 171.727C651.562 167.753 658.719 165.6 668.673 165.6V161.6C658.228 161.6 649.985 163.847 644.282 168.673L646.865 171.727ZM668.673 165.6C678.839 165.6 686.091 167.757 690.782 171.727L693.365 168.673C687.656 163.843 679.308 161.6 668.673 161.6V165.6ZM690.782 171.727C695.38 175.618 697.873 181.854 697.873 190.9H701.873C701.873 181.146 699.167 173.582 693.365 168.673L690.782 171.727ZM697.873 190.9C697.873 199.51 695.399 205.627 690.765 209.638C686.075 213.696 678.83 215.9 668.673 215.9V219.9C679.317 219.9 687.672 217.604 693.382 212.662C699.147 207.673 701.873 200.29 701.873 190.9H697.873ZM755.437 212.2L754.675 214.049L754.691 214.056L754.707 214.062L755.437 212.2ZM730.237 195.1L728.724 196.408L728.743 196.43L728.762 196.451L730.237 195.1ZM716.137 169.6L714.224 170.185L714.228 170.197L716.137 169.6ZM716.137 104.8L714.222 104.222L714.219 104.234L714.215 104.246L716.137 104.8ZM730.537 77.2L732.083 78.4686L732.091 78.4591L732.098 78.4494L730.537 77.2ZM754.837 58.3L753.987 56.4895L754.837 58.3ZM823.837 58.3L822.972 60.1036L822.995 60.1143L823.018 60.1245L823.837 58.3ZM847.537 77.5L845.909 78.6625L845.916 78.6718L845.923 78.681L847.537 77.5ZM859.537 106.6L857.568 106.952L859.537 106.6ZM859.837 143.2L859.867 145.2L861.586 145.173L861.818 143.47L859.837 143.2ZM742.237 145H740.237V147.031L742.267 147L742.237 145ZM742.237 118.9L742.201 116.9L740.237 116.936V118.9H742.237ZM825.637 117.4L827.301 118.509L829.419 115.332L825.601 115.4L825.637 117.4ZM816.037 131.8L814.053 131.547L817.701 132.909L816.037 131.8ZM815.137 108.4L813.211 108.941L813.214 108.95L813.216 108.958L815.137 108.4ZM805.837 94L804.625 95.5909L804.642 95.6044L804.66 95.6175L805.837 94ZM771.637 94.9L770.395 93.3319L770.379 93.3448L770.363 93.3581L771.637 94.9ZM761.437 111.1L763.345 111.7L761.437 111.1ZM766.837 171.4L765.263 172.634L765.273 172.647L765.283 172.66L766.837 171.4ZM804.937 180.7L804.271 178.814L804.253 178.82L804.234 178.827L804.937 180.7ZM813.037 175.6L811.562 174.249L811.557 174.255L813.037 175.6ZM817.537 167.2L815.628 166.603L815.61 166.659L815.596 166.715L817.537 167.2ZM819.337 156.7L819.541 154.71L817.45 154.496L817.339 156.595L819.337 156.7ZM863.137 161.2L865.136 161.259L865.19 159.4L863.341 159.21L863.137 161.2ZM859.237 181.6L857.351 180.934L857.345 180.951L857.339 180.968L859.237 181.6ZM847.837 199.9L849.251 201.314L849.264 201.301L849.276 201.288L847.837 199.9ZM825.937 213.1L825.243 211.224L825.237 211.227L825.23 211.229L825.937 213.1ZM792.637 216.2C778.208 216.2 766.071 214.222 756.167 210.338L754.707 214.062C765.202 218.178 777.865 220.2 792.637 220.2V216.2ZM756.198 210.351C746.234 206.248 738.089 200.706 731.711 193.749L728.762 196.451C735.585 203.894 744.239 209.752 754.675 214.049L756.198 210.351ZM731.749 193.792C725.534 186.605 720.966 178.349 718.046 169.003L714.228 170.197C717.307 180.051 722.139 188.795 728.724 196.408L731.749 193.792ZM718.049 169.015C715.112 159.421 713.637 149.12 713.637 138.1H709.637C709.637 149.48 711.161 160.179 714.224 170.185L718.049 169.015ZM713.637 138.1C713.637 126.471 715.115 115.559 718.058 105.354L714.215 104.246C711.159 114.841 709.637 126.129 709.637 138.1H713.637ZM718.051 105.378C721.183 95.0055 725.866 86.0459 732.083 78.4686L728.991 75.9314C722.408 83.9541 717.491 93.3944 714.222 104.222L718.051 105.378ZM732.098 78.4494C738.296 70.702 746.148 64.588 755.687 60.1105L753.987 56.4895C743.926 61.212 735.577 67.698 728.975 75.9506L732.098 78.4494ZM755.687 60.1105C765.169 55.6596 776.367 53.4 789.337 53.4V49.4C775.906 49.4 764.105 51.7404 753.987 56.4895L755.687 60.1105ZM789.337 53.4C802.513 53.4 813.703 55.6619 822.972 60.1036L824.701 56.4964C814.771 51.7381 802.961 49.4 789.337 49.4V53.4ZM823.018 60.1245C832.508 64.3855 840.124 70.5629 845.909 78.6625L849.164 76.3375C842.95 67.6371 834.766 61.0145 824.656 56.4754L823.018 60.1245ZM845.923 78.681C851.722 86.6071 855.615 96.0152 857.568 106.952L861.506 106.248C859.458 94.7847 855.351 84.7929 849.151 76.319L845.923 78.681ZM857.568 106.952C859.526 117.915 859.632 129.902 857.855 142.93L861.818 143.47C863.642 130.098 863.548 117.685 861.506 106.248L857.568 106.952ZM859.806 141.2L742.206 143L742.267 147L859.867 145.2L859.806 141.2ZM744.237 145V118.9H740.237V145H744.237ZM742.273 120.9L825.673 119.4L825.601 115.4L742.201 116.9L742.273 120.9ZM823.973 116.291L814.373 130.691L817.701 132.909L827.301 118.509L823.973 116.291ZM818.021 132.053C819.24 122.498 818.961 114.399 817.057 107.842L813.216 108.958C814.913 114.801 815.233 122.302 814.053 131.547L818.021 132.053ZM817.062 107.859C815.168 101.125 811.852 95.9015 807.013 92.3825L804.66 95.6175C808.622 98.4985 811.505 102.875 813.211 108.941L817.062 107.859ZM807.049 92.4091C802.421 88.8834 796.563 87.2 789.637 87.2V91.2C795.91 91.2 800.852 92.7166 804.625 95.5909L807.049 92.4091ZM789.637 87.2C782.069 87.2 775.608 89.2049 770.395 93.3319L772.878 96.4681C777.265 92.9951 782.805 91.2 789.637 91.2V87.2ZM770.363 93.3581C765.403 97.4555 761.818 103.217 759.529 110.5L763.345 111.7C765.456 104.983 768.671 99.9445 772.91 96.4419L770.363 93.3581ZM759.529 110.5C757.252 117.744 756.137 126.256 756.137 136H760.137C760.137 126.544 761.221 118.456 763.345 111.7L759.529 110.5ZM756.137 136C756.137 152.356 759.049 164.706 765.263 172.634L768.411 170.166C763.025 163.294 760.137 152.044 760.137 136H756.137ZM765.283 172.66C771.732 180.613 780.952 184.5 792.637 184.5V180.5C781.922 180.5 773.942 176.987 768.39 170.14L765.283 172.66ZM792.637 184.5C797.776 184.5 802.136 183.886 805.639 182.573L804.234 178.827C801.337 179.914 797.498 180.5 792.637 180.5V184.5ZM805.602 182.586C809.249 181.299 812.251 179.437 814.517 176.945L811.557 174.255C809.822 176.163 807.425 177.701 804.271 178.814L805.602 182.586ZM814.511 176.951C816.939 174.303 818.597 171.204 819.477 167.685L815.596 166.715C814.876 169.596 813.534 172.097 811.562 174.249L814.511 176.951ZM819.446 167.797C820.502 164.417 821.126 160.75 821.334 156.805L817.339 156.595C817.147 160.25 816.572 163.583 815.628 166.603L819.446 167.797ZM819.132 158.69L862.932 163.19L863.341 159.21L819.541 154.71L819.132 158.69ZM861.138 161.141C860.944 167.722 859.686 174.318 857.351 180.934L861.123 182.266C863.587 175.282 864.929 168.278 865.136 161.259L861.138 161.141ZM857.339 180.968C855.244 187.253 851.615 193.101 846.397 198.512L849.276 201.288C854.859 195.499 858.829 189.147 861.134 182.232L857.339 180.968ZM846.422 198.486C841.276 203.632 834.247 207.897 825.243 211.224L826.63 214.976C836.027 211.503 843.597 206.968 849.251 201.314L846.422 198.486ZM825.23 211.229C816.523 214.518 805.679 216.2 792.637 216.2V220.2C805.995 220.2 817.351 218.482 826.644 214.971L825.23 211.229ZM914.198 214L912.287 214.59L912.722 216H914.198V214ZM865.298 55.6V53.6H862.587L863.387 56.1899L865.298 55.6ZM917.498 55.6L919.444 55.1381L919.078 53.6H917.498V55.6ZM945.698 174.4L943.752 174.862L944.117 176.4H945.698V174.4ZM948.098 174.4V176.4H949.667L950.04 174.876L948.098 174.4ZM977.198 55.6V53.6H975.628L975.255 55.1242L977.198 55.6ZM1026.7 55.6L1028.61 56.1933L1029.41 53.6H1026.7V55.6ZM977.498 214V216H978.971L979.408 214.593L977.498 214ZM916.109 213.41L867.209 55.01L863.387 56.1899L912.287 214.59L916.109 213.41ZM865.298 57.6H917.498V53.6H865.298V57.6ZM915.552 56.0619L943.752 174.862L947.644 173.938L919.444 55.1381L915.552 56.0619ZM945.698 176.4H948.098V172.4H945.698V176.4ZM950.04 174.876L979.14 56.0758L975.255 55.1242L946.155 173.924L950.04 174.876ZM977.198 57.6H1026.7V53.6H977.198V57.6ZM1024.79 55.0067L975.588 213.407L979.408 214.593L1028.61 56.1933L1024.79 55.0067ZM977.498 212H914.198V216H977.498V212ZM1052.17 199.9L1050.53 201.052L1052.17 199.9ZM1039.27 55.6V53.6H1037.27V55.6H1039.27ZM1087.87 55.6H1089.87V53.6H1087.87V55.6ZM1093.27 168.4L1094.93 167.291L1093.27 168.4ZM1121.77 172.9L1122.84 174.591L1121.77 172.9ZM1137.97 144.4L1139.93 144.792L1139.93 144.782L1137.97 144.4ZM1140.07 55.6V53.6H1138.07V55.6H1140.07ZM1188.67 55.6H1190.67V53.6H1188.67V55.6ZM1188.67 214V216H1190.67V214H1188.67ZM1148.17 214L1146.17 214.01L1146.18 216H1148.17V214ZM1147.87 156.1L1149.87 156.09L1149.86 154.1H1147.87V156.1ZM1144.57 156.1V154.1H1142.78L1142.58 155.879L1144.57 156.1ZM1135.57 191.5L1133.76 190.637L1133.76 190.653L1133.75 190.669L1135.57 191.5ZM1118.17 211.9L1119.17 213.628L1119.18 213.623L1119.19 213.619L1118.17 211.9ZM1091.77 216.2C1074.47 216.2 1061.95 210.309 1053.8 198.748L1050.53 201.052C1059.58 213.891 1073.46 220.2 1091.77 220.2V216.2ZM1053.8 198.748C1045.55 187.046 1041.27 168.843 1041.27 143.8H1037.27C1037.27 169.157 1041.58 188.354 1050.53 201.052L1053.8 198.748ZM1041.27 143.8V55.6H1037.27V143.8H1041.27ZM1039.27 57.6H1087.87V53.6H1039.27V57.6ZM1085.87 55.6V141.7H1089.87V55.6H1085.87ZM1085.87 141.7C1085.87 154.191 1087.66 163.596 1091.6 169.509L1094.93 167.291C1091.67 162.404 1089.87 154.009 1089.87 141.7H1085.87ZM1091.6 169.509C1095.61 175.516 1101.56 178.5 1109.17 178.5V174.5C1102.77 174.5 1098.13 172.084 1094.93 167.291L1091.6 169.509ZM1109.17 178.5C1114.14 178.5 1118.71 177.198 1122.84 174.591L1120.7 171.209C1117.23 173.402 1113.4 174.5 1109.17 174.5V178.5ZM1122.84 174.591C1126.96 171.984 1130.47 168.121 1133.39 163.108L1129.94 161.092C1127.26 165.679 1124.17 169.016 1120.7 171.209L1122.84 174.591ZM1133.39 163.108C1136.33 158.071 1138.5 151.95 1139.93 144.792L1136.01 144.008C1134.64 150.85 1132.6 156.529 1129.94 161.092L1133.39 163.108ZM1139.93 144.782C1141.36 137.427 1142.07 128.994 1142.07 119.5H1138.07C1138.07 128.806 1137.37 136.973 1136 144.018L1139.93 144.782ZM1142.07 119.5V55.6H1138.07V119.5H1142.07ZM1140.07 57.6H1188.67V53.6H1140.07V57.6ZM1186.67 55.6V144.7H1190.67V55.6H1186.67ZM1186.67 144.7V214H1190.67V144.7H1186.67ZM1188.67 212H1148.17V216H1188.67V212ZM1150.17 213.99L1149.87 156.09L1145.87 156.11L1146.17 214.01L1150.17 213.99ZM1147.87 154.1H1144.57V158.1H1147.87V154.1ZM1142.58 155.879C1140.99 170.142 1138.03 181.705 1133.76 190.637L1137.37 192.363C1141.9 182.895 1144.94 170.858 1146.55 156.321L1142.58 155.879ZM1133.75 190.669C1129.69 199.565 1124.14 206.023 1117.15 210.181L1119.19 213.619C1127 208.977 1133.05 201.835 1137.39 192.331L1133.75 190.669ZM1117.16 210.172C1110.33 214.155 1101.9 216.2 1091.77 216.2V220.2C1102.43 220.2 1111.6 218.045 1119.17 213.628L1117.16 210.172Z" fill="#868E96" mask="url(#path-1-outside-1_18_454)"/>
</svg>
