<svg width="94" height="525" viewBox="0 0 94 525" fill="none" xmlns="http://www.w3.org/2000/svg">
<mask id="path-1-outside-1_18_455" maskUnits="userSpaceOnUse" x="-27.9845" y="-128.095" width="122" height="653" fill="black">
<rect fill="white" x="-27.9845" y="-128.095" width="122" height="653"/>
<path d="M90.0155 523.667L44.7801 523.667L3.16359 523.667L3.16359 501.132L36.2265 500.967L36.2265 498.993C27.4536 498.335 20.5449 497.019 15.5005 495.045C10.3464 493.072 6.67275 490.495 4.47952 487.314C2.28629 484.024 1.18967 480.241 1.18967 475.964C1.18967 474.319 1.409 472.565 1.84764 470.701C2.17662 468.836 2.83459 466.972 3.82155 465.108L32.9367 466.424C31.7304 468.617 30.8531 470.81 30.3048 473.004C29.6468 475.197 29.3179 477.28 29.3179 479.254C29.3179 482.983 30.3048 486.163 32.2787 488.795C34.143 491.427 36.9393 493.455 40.6678 494.881C44.2866 496.307 48.7828 497.074 54.1562 497.184L90.0155 497.184L90.0155 523.667ZM92.3184 415.876C92.3184 423.881 91.2218 430.68 89.0285 436.273C86.7257 441.866 83.6003 446.471 79.6525 450.09C75.595 453.599 70.9344 456.176 65.6706 457.821C60.2972 459.466 54.54 460.289 48.399 460.289C41.9289 460.289 35.8427 459.466 30.1403 457.821C24.3283 456.067 19.2838 453.435 15.007 449.926C10.6206 446.417 7.16622 441.975 4.64401 436.602C2.12179 431.228 0.860682 424.923 0.860682 417.685C0.860682 410.338 2.12179 404.032 4.644 398.769C7.05656 393.395 10.5657 389.064 15.1715 385.774C19.6676 382.484 24.9862 380.291 31.1273 379.194C37.2683 378.097 43.9577 378.043 51.1953 379.03L52.1823 443.511L37.8715 443.511L37.049 397.782L44.9446 403.045C39.7905 402.387 35.5137 402.552 32.1142 403.539C28.6051 404.526 25.9732 406.226 24.2186 408.638C22.464 410.941 21.5867 413.902 21.5867 417.521C21.5867 421.469 22.6285 424.758 24.7121 427.39C26.7956 429.913 29.7565 431.777 33.5946 432.983C37.4328 434.189 41.9838 434.792 47.2475 434.792C56.1301 434.792 62.6001 433.202 66.6576 430.022C70.7151 426.732 72.7438 422.017 72.7438 415.876C72.7438 413.134 72.4148 410.886 71.7569 409.132C71.0989 407.267 70.1668 405.787 68.9605 404.69C67.6445 403.484 66.1093 402.662 64.3547 402.223C62.6001 401.675 60.681 401.346 58.5975 401.236L61.0649 377.22C64.7933 377.33 68.5218 378.043 72.2503 379.359C75.8692 380.565 79.2138 382.648 82.2844 385.609C85.2452 388.57 87.6578 392.573 89.522 397.617C91.3863 402.552 92.3184 408.638 92.3184 415.876ZM90.0155 366.243L40.0098 366.243L3.16358 366.243L3.16358 344.201L35.733 344.036L35.733 342.063C27.8374 341.185 21.3126 339.595 16.1585 337.292C11.0044 334.989 7.16622 331.809 4.644 327.752C2.12179 323.694 0.860678 318.65 0.860677 312.618C0.860677 302.968 4.15052 295.676 10.7302 290.741C17.2002 285.806 27.0698 283.339 40.3388 283.339L90.0155 283.339L90.0155 309.987L43.6287 309.987C36.8297 309.987 31.7852 311.028 28.4954 313.112C25.2055 315.086 23.5606 318.211 23.5606 322.488C23.5606 325.997 24.7669 329.068 27.1794 331.7C29.4823 334.222 33.1012 336.196 38.0359 337.621C42.861 339.047 49.1117 339.76 56.7881 339.76L90.0155 339.76L90.0155 366.243ZM92.3184 238.294C92.3184 244.764 90.6186 250.576 87.2191 255.73C83.71 260.884 78.501 264.941 71.5924 267.902C64.6837 270.863 56.0753 272.343 45.7671 272.344C36.2265 272.344 28.1116 271.028 21.4222 268.396C14.7329 265.764 9.68843 261.98 6.28893 257.046C2.77976 252.111 1.02517 246.189 1.02517 239.281C1.02517 234.126 2.06696 229.63 4.15053 225.792C6.12443 221.954 9.30462 218.774 13.6911 216.252C17.9679 213.729 23.5606 211.865 30.4693 210.659L30.4693 208.52C26.7408 209.069 23.122 209.672 19.6128 210.33C15.994 210.878 12.5945 211.317 9.41428 211.646C6.12443 211.865 3.10874 211.975 0.367202 211.975L-26.1161 211.975L-26.1161 185.327L55.9656 185.327L90.0155 185.327L90.0155 208.192L63.5322 208.192L63.5322 210.165C70.0023 211.372 75.3757 213.236 79.6525 215.758C83.8196 218.171 86.9998 221.241 89.193 224.97C91.2766 228.698 92.3184 233.14 92.3184 238.294ZM71.0989 228.753C71.0989 226.34 70.5506 224.092 69.454 222.009C68.3573 219.925 66.7672 218.116 64.6837 216.581C62.6001 215.045 60.1327 213.894 57.2815 213.126C54.4303 212.249 51.1953 211.81 47.5765 211.81L45.7671 211.81C42.9159 211.81 40.284 212.139 37.8714 212.797C35.3492 213.346 33.156 214.168 31.2917 215.265C29.4275 216.361 27.8922 217.677 26.686 219.212C25.37 220.638 24.4379 222.228 23.8896 223.983C23.2316 225.628 22.9026 227.327 22.9026 229.082C22.9026 232.591 23.9993 235.552 26.1925 237.965C28.3857 240.268 31.3466 242.022 35.0751 243.228C38.6939 244.435 42.6965 245.038 47.083 245.038C51.5791 245.038 55.6366 244.38 59.2554 243.064C62.8743 241.748 65.7803 239.884 67.9735 237.471C70.0571 235.059 71.0989 232.153 71.0989 228.753ZM92.1539 158.235C92.1539 163.827 90.9476 168.049 88.5351 170.901C86.1225 173.642 82.394 175.013 77.3496 175.013C72.1955 175.013 68.4122 173.642 65.9996 170.901C63.5871 168.049 62.3808 163.827 62.3808 158.235C62.3808 152.532 63.5871 148.256 65.9996 145.404C68.4122 142.553 72.1955 141.128 77.3496 141.128C87.2191 141.128 92.1539 146.83 92.1539 158.235ZM92.3184 90.2647C92.3184 98.27 91.2218 105.069 89.0285 110.662C86.7256 116.254 83.6003 120.86 79.6525 124.479C75.595 127.988 70.9344 130.565 65.6706 132.21C60.2972 133.855 54.54 134.678 48.3989 134.678C41.9289 134.678 35.8427 133.855 30.1403 132.21C24.3282 130.456 19.2838 127.824 15.007 124.315C10.6205 120.805 7.16621 116.364 4.64399 110.991C2.12178 105.617 0.860668 99.3118 0.860668 92.0741C0.860667 84.7268 2.12177 78.4213 4.64399 73.1575C7.05655 67.7841 10.5657 63.4525 15.1715 60.1626C19.6676 56.8728 24.9862 54.6795 31.1272 53.5829C37.2683 52.4863 43.9576 52.4315 51.1953 53.4184L52.1823 117.899L37.8714 117.899L37.049 72.1705L44.9446 77.4343C39.7905 76.7763 35.5137 76.9408 32.1142 77.9278C28.605 78.9147 25.9732 80.6145 24.2186 83.027C22.464 85.3299 21.5867 88.2908 21.5867 91.9096C21.5867 95.8574 22.6285 99.1473 24.7121 101.779C26.7956 104.301 29.7565 106.166 33.5946 107.372C37.4328 108.578 41.9837 109.181 47.2475 109.181C56.1301 109.181 62.6001 107.591 66.6576 104.411C70.7151 101.121 72.7438 96.4057 72.7438 90.2647C72.7438 87.5232 72.4148 85.2751 71.7568 83.5205C71.0989 81.6563 70.1667 80.1758 68.9605 79.0792C67.6445 77.8729 66.1093 77.0505 64.3547 76.6118C62.6001 76.0635 60.681 75.7345 58.5975 75.6249L61.0648 51.609C64.7933 51.7187 68.5218 52.4315 72.2503 53.7474C75.8691 54.9537 79.2138 57.0373 82.2843 59.9981C85.2452 62.959 87.6578 66.9616 89.522 72.006C91.3863 76.9408 92.3184 83.027 92.3184 90.2647ZM90.0155 23.6119L3.16357 50.4242L3.16357 21.8025L68.3025 6.34022L68.3025 5.02428L3.16356 -10.9315L3.16356 -38.0727L90.0155 -11.096L90.0155 23.6119ZM92.3184 -73.7508C92.3184 -63.9909 88.9737 -56.7533 82.2843 -52.0378C75.595 -47.3224 65.3416 -44.9646 51.5243 -44.9646L3.16356 -44.9646L3.16356 -71.6124L50.3728 -71.6124C57.1719 -71.6124 62.0518 -72.5993 65.0127 -74.5732C67.9735 -76.5472 69.4539 -79.4532 69.4539 -83.2913C69.4539 -85.8136 68.796 -88.1164 67.48 -90.2C66.1641 -92.2836 64.1902 -94.093 61.5583 -95.6283C58.9264 -97.1635 55.6914 -98.315 51.8533 -99.0826C47.9055 -99.8502 43.3545 -100.234 38.2004 -100.234L3.16356 -100.234L3.16356 -126.882L52.0178 -126.882L90.0155 -126.882L90.0155 -104.675L58.2685 -104.511L58.2685 -102.701C66.1641 -101.824 72.6341 -100.179 77.6786 -97.7667C82.723 -95.4638 86.4515 -92.2836 88.864 -88.2261C91.1669 -84.2783 92.3184 -79.4532 92.3184 -73.7508Z"/>
</mask>
<path d="M90.0155 523.667L90.0155 524.764L91.1121 524.764L91.1121 523.667L90.0155 523.667ZM3.16359 523.667L2.06697 523.667L2.06697 524.764L3.16359 524.764L3.16359 523.667ZM3.16359 501.132L3.15813 500.035L2.06697 500.041L2.06697 501.132L3.16359 501.132ZM36.2265 500.967L36.232 502.064L37.3231 502.058L37.3231 500.967L36.2265 500.967ZM36.2265 498.993L37.3231 498.993L37.3231 497.976L36.3085 497.9L36.2265 498.993ZM15.5005 495.045L15.9001 494.024L15.8927 494.021L15.5005 495.045ZM4.47952 487.314L3.56708 487.923L3.57187 487.93L3.57677 487.937L4.47952 487.314ZM1.84765 470.701L2.91511 470.952L2.9222 470.922L2.92758 470.891L1.84765 470.701ZM3.82155 465.108L3.87106 464.012L3.1773 463.981L2.85237 464.595L3.82155 465.108ZM32.9367 466.424L33.8976 466.952L34.747 465.408L32.9862 465.328L32.9367 466.424ZM30.3048 473.003L31.3552 473.319L31.3625 473.294L31.3687 473.269L30.3048 473.003ZM32.2787 488.795L33.1736 488.161L33.165 488.149L33.156 488.137L32.2787 488.795ZM40.6678 494.881L41.0698 493.861L41.0595 493.857L40.6678 494.881ZM54.1562 497.184L54.1338 498.28L54.145 498.28L54.1562 498.28L54.1562 497.184ZM90.0155 497.184L91.1121 497.184L91.1121 496.087L90.0155 496.087L90.0155 497.184ZM90.0155 522.571L44.7801 522.571L44.7801 524.764L90.0155 524.764L90.0155 522.571ZM44.7801 522.571L3.16359 522.571L3.16359 524.764L44.7801 524.764L44.7801 522.571ZM4.2602 523.667L4.2602 501.132L2.06697 501.132L2.06697 523.667L4.2602 523.667ZM3.16904 502.228L36.232 502.064L36.2211 499.871L3.15813 500.035L3.16904 502.228ZM37.3231 500.967L37.3231 498.993L35.1299 498.993L35.1299 500.967L37.3231 500.967ZM36.3085 497.9C27.5856 497.246 20.7996 495.941 15.9001 494.024L15.1009 496.067C20.2903 498.097 27.3216 499.425 36.1445 500.087L36.3085 497.9ZM15.8927 494.021C10.8604 492.094 7.40646 489.627 5.38227 486.692L3.57677 487.937C5.93904 491.362 9.8324 494.049 15.1083 496.07L15.8927 494.021ZM5.39196 486.706C3.32869 483.611 2.28629 480.043 2.28629 475.964L0.093061 475.964C0.0930611 480.439 1.24389 484.438 3.56708 487.923L5.39196 486.706ZM2.28629 475.964C2.28629 474.416 2.49275 472.747 2.91511 470.952L0.780179 470.449C0.325246 472.383 0.0930609 474.222 0.093061 475.964L2.28629 475.964ZM2.92758 470.891C3.23455 469.152 3.85123 467.396 4.79072 465.621L2.85237 464.595C1.81796 466.549 1.1187 468.521 0.767717 470.51L2.92758 470.891ZM3.77203 466.203L32.8872 467.519L32.9862 465.328L3.87106 464.012L3.77203 466.203ZM31.9758 465.895C30.7288 468.163 29.8144 470.444 29.2409 472.738L31.3687 473.269C31.8918 471.177 32.732 469.072 33.8976 466.952L31.9758 465.895ZM29.2544 472.688C28.5706 474.968 28.2212 477.158 28.2212 479.254L30.4145 479.254C30.4145 477.403 30.7231 475.426 31.3552 473.319L29.2544 472.688ZM28.2212 479.254C28.2212 483.187 29.2665 486.606 31.4014 489.453L33.156 488.137C31.3431 485.72 30.4145 482.779 30.4145 479.254L28.2212 479.254ZM31.3838 489.429C33.4005 492.276 36.3934 494.421 40.2762 495.905L41.0595 493.857C37.4852 492.49 34.8855 490.578 33.1736 488.161L31.3838 489.429ZM40.2659 495.901C44.0423 497.389 48.6765 498.169 54.1338 498.28L54.1786 496.087C48.8891 495.98 44.5311 495.224 41.0698 493.861L40.2659 495.901ZM54.1562 498.28L90.0155 498.28L90.0155 496.087L54.1562 496.087L54.1562 498.28ZM88.9189 497.184L88.9189 523.667L91.1121 523.667L91.1121 497.184L88.9189 497.184ZM89.0285 436.273L90.0426 436.69L90.0461 436.682L90.0495 436.673L89.0285 436.273ZM79.6525 450.09L80.3698 450.92L80.3818 450.909L80.3935 450.899L79.6525 450.09ZM65.6706 457.821L65.9916 458.87L65.9977 458.868L65.6706 457.821ZM30.1403 457.821L29.8234 458.871L29.8364 458.875L30.1403 457.821ZM15.007 449.926L15.7027 449.078L15.6921 449.069L15.007 449.926ZM4.644 436.602L3.65131 437.068L4.644 436.602ZM4.644 398.769L5.63295 399.243L5.63883 399.23L5.64441 399.218L4.644 398.769ZM15.1715 385.774L15.8089 386.666L15.8191 386.659L15.1715 385.774ZM31.1273 379.194L31.32 380.274L31.1273 379.194ZM51.1953 379.03L52.2918 379.013L52.2774 378.07L51.3435 377.943L51.1953 379.03ZM52.1823 443.511L52.1823 444.607L53.2958 444.607L53.2788 443.494L52.1823 443.511ZM37.8714 443.511L36.775 443.53L36.7944 444.607L37.8714 444.607L37.8714 443.511ZM37.049 397.782L37.6573 396.869L35.9149 395.708L35.9525 397.801L37.049 397.782ZM44.9446 403.045L44.8058 404.133L45.5529 402.133L44.9446 403.045ZM32.1142 403.539L32.4111 404.595L32.42 404.592L32.1142 403.539ZM24.2186 408.638L25.0909 409.303L25.0983 409.293L25.1055 409.283L24.2186 408.638ZM24.7121 427.39L23.8523 428.071L23.8594 428.08L23.8666 428.089L24.7121 427.39ZM33.5946 432.983L33.9234 431.937L33.5946 432.983ZM66.6576 430.022L67.3341 430.885L67.3412 430.88L67.3482 430.874L66.6576 430.022ZM71.7569 409.132L70.7228 409.497L70.7263 409.507L70.7301 409.517L71.7569 409.132ZM68.9605 404.69L68.2195 405.499L68.2228 405.502L68.9605 404.69ZM64.3547 402.223L64.0276 403.27L64.0579 403.279L64.0887 403.287L64.3547 402.223ZM58.5975 401.236L57.5066 401.124L57.3888 402.271L58.5398 402.331L58.5975 401.236ZM61.0649 377.22L61.0971 376.124L60.0782 376.094L59.974 377.108L61.0649 377.22ZM72.2503 379.359L71.8854 380.393L71.8944 380.396L71.9036 380.399L72.2503 379.359ZM82.2844 385.609L83.0598 384.834L83.0527 384.827L83.0456 384.82L82.2844 385.609ZM89.522 397.617L88.4934 397.997L88.4962 398.005L89.522 397.617ZM91.2218 415.876C91.2218 423.787 90.1372 430.442 88.0076 435.873L90.0495 436.673C92.3063 430.918 93.415 423.975 93.415 415.876L91.2218 415.876ZM88.0145 435.855C85.7649 441.319 82.7262 445.785 78.9115 449.282L80.3935 450.899C84.4744 447.158 87.6864 442.413 90.0426 436.69L88.0145 435.855ZM78.9351 449.261C74.9947 452.669 70.4678 455.173 65.3435 456.775L65.9977 458.868C71.401 457.18 76.1953 454.53 80.3698 450.92L78.9351 449.261ZM65.3497 456.773C60.0894 458.383 54.4412 459.192 48.399 459.192L48.399 461.385C54.6388 461.385 60.505 460.55 65.9916 458.87L65.3497 456.773ZM48.399 459.192C42.0226 459.192 36.0394 458.382 30.4442 456.768L29.8364 458.875C35.646 460.551 41.8353 461.385 48.399 461.385L48.399 459.192ZM30.4572 456.772C24.7699 455.055 19.8573 452.487 15.7026 449.078L14.3114 450.774C18.7103 454.383 23.8866 457.079 29.8234 458.871L30.4572 456.772ZM15.6921 449.069C11.4441 445.671 8.09174 441.366 5.6367 436.136L3.65131 437.068C6.2407 442.584 9.79702 447.162 14.322 450.782L15.6921 449.069ZM5.6367 436.136C3.19626 430.937 1.9573 424.796 1.9573 417.685L-0.235933 417.685C-0.235932 425.049 1.04732 431.52 3.65131 437.068L5.6367 436.136ZM1.9573 417.685C1.9573 410.461 3.1975 404.325 5.63295 399.243L3.65506 398.295C1.04607 403.74 -0.235933 410.215 -0.235933 417.685L1.9573 417.685ZM5.64441 399.218C7.98075 394.014 11.3678 389.838 15.8089 386.666L14.5341 384.881C9.76362 388.289 6.13237 392.776 3.64359 398.32L5.64441 399.218ZM15.8191 386.659C20.165 383.479 25.3236 381.344 31.32 380.274L30.9345 378.115C24.6489 379.237 19.1703 381.489 14.524 384.889L15.8191 386.659ZM31.32 380.274C37.3311 379.2 43.9039 379.142 51.0472 380.116L51.3435 377.943C44.0114 376.943 37.2055 376.995 30.9345 378.115L31.32 380.274ZM50.0988 379.046L51.0858 443.527L53.2788 443.494L52.2918 379.013L50.0988 379.046ZM52.1823 442.414L37.8714 442.414L37.8714 444.607L52.1823 444.607L52.1823 442.414ZM38.9679 443.491L38.1454 397.762L35.9525 397.801L36.775 443.53L38.9679 443.491ZM36.4407 398.694L44.3363 403.958L45.5529 402.133L37.6573 396.869L36.4407 398.694ZM45.0835 401.958C39.8442 401.289 35.4033 401.442 31.8085 402.486L32.42 404.592C35.6241 403.662 39.7369 403.486 44.8058 404.133L45.0835 401.958ZM31.8173 402.483C28.1251 403.522 25.2612 405.34 23.3317 407.993L25.1055 409.283C26.6852 407.111 29.085 405.53 32.4111 404.595L31.8173 402.483ZM23.3463 407.974C21.4131 410.511 20.4901 413.723 20.4901 417.521L22.6833 417.521C22.6833 414.081 23.5149 411.371 25.0909 409.303L23.3463 407.974ZM20.4901 417.521C20.4901 421.67 21.5894 425.213 23.8523 428.071L25.5719 426.71C23.6676 424.304 22.6833 421.267 22.6833 417.521L20.4901 417.521ZM23.8666 428.089C26.1133 430.808 29.2722 432.774 33.2659 434.029L33.9234 431.937C30.2408 430.779 27.478 429.017 25.5575 426.692L23.8666 428.089ZM33.2659 434.029C37.2374 435.277 41.9046 435.889 47.2475 435.889L47.2475 433.696C42.0629 433.696 37.6282 433.101 33.9234 431.937L33.2659 434.029ZM47.2475 435.889C56.2155 435.889 62.9872 434.292 67.3341 430.885L65.9811 429.159C62.2131 432.112 56.0447 433.696 47.2475 433.696L47.2475 435.889ZM67.3482 430.874C71.7089 427.338 73.8404 422.283 73.8404 415.876L71.6472 415.876C71.6472 421.751 69.7212 426.126 65.9669 429.17L67.3482 430.874ZM73.8404 415.876C73.8404 413.058 73.5039 410.667 72.7836 408.747L70.7301 409.517C71.3258 411.105 71.6472 413.21 71.6472 415.876L73.8404 415.876ZM72.7909 408.767C72.0854 406.767 71.0644 405.121 69.6982 403.879L68.2228 405.502C69.2692 406.453 70.1124 407.767 70.7228 409.497L72.7909 408.767ZM69.7015 403.882C68.2491 402.551 66.55 401.641 64.6207 401.159L64.0887 403.287C65.6686 403.682 67.04 404.418 68.2195 405.499L69.7015 403.882ZM64.6818 401.176C62.8289 400.597 60.8181 400.255 58.6551 400.141L58.5398 402.331C60.544 402.437 62.3713 402.752 64.0276 403.27L64.6818 401.176ZM59.6883 401.348L62.1557 377.332L59.974 377.108L57.5066 401.124L59.6883 401.348ZM61.0326 378.316C64.641 378.422 68.2575 379.112 71.8854 380.393L72.6153 378.324C68.7862 376.973 64.9457 376.237 61.0971 376.124L61.0326 378.316ZM71.9036 380.399C75.3498 381.548 78.5563 383.538 81.5232 386.399L83.0456 384.82C79.8714 381.759 76.3885 379.582 72.5971 378.318L71.9036 380.399ZM81.5089 386.385C84.3308 389.207 86.669 393.061 88.4934 397.997L90.5506 397.237C88.6465 392.085 86.1596 387.934 83.0598 384.834L81.5089 386.385ZM88.4962 398.005C90.2998 402.779 91.2218 408.725 91.2218 415.876L93.415 415.876C93.415 408.552 92.4728 402.325 90.5479 397.23L88.4962 398.005ZM90.0155 366.243L90.0155 367.339L91.1121 367.339L91.1121 366.243L90.0155 366.243ZM3.16358 366.243L2.06697 366.243L2.06697 367.339L3.16358 367.339L3.16358 366.243ZM3.16358 344.201L3.15804 343.104L2.06697 343.11L2.06697 344.201L3.16358 344.201ZM35.733 344.036L35.7386 345.133L36.8297 345.128L36.8297 344.036L35.733 344.036ZM35.733 342.063L36.8297 342.063L36.8297 341.081L35.8541 340.973L35.733 342.063ZM16.1585 337.292L15.7111 338.293L16.1585 337.292ZM4.644 327.752L3.71266 328.331L4.644 327.752ZM10.7302 290.741L11.3882 291.618L11.3953 291.613L10.7302 290.741ZM90.0155 283.339L91.1121 283.339L91.1121 282.242L90.0155 282.242L90.0155 283.339ZM90.0155 309.987L90.0155 311.083L91.1121 311.083L91.1121 309.987L90.0155 309.987ZM28.4954 313.112L29.0596 314.052L29.0709 314.045L29.0821 314.038L28.4954 313.112ZM27.1794 331.7L27.9893 330.96L27.9878 330.958L27.1794 331.7ZM38.0359 337.621L38.3467 336.57L38.3403 336.568L38.0359 337.621ZM90.0155 339.76L91.1121 339.76L91.1121 338.663L90.0155 338.663L90.0155 339.76ZM90.0155 365.146L40.0098 365.146L40.0098 367.339L90.0155 367.339L90.0155 365.146ZM40.0098 365.146L3.16358 365.146L3.16358 367.339L40.0098 367.339L40.0098 365.146ZM4.2602 366.243L4.2602 344.201L2.06697 344.201L2.06697 366.243L4.2602 366.243ZM3.16912 345.298L35.7386 345.133L35.7275 342.94L3.15804 343.104L3.16912 345.298ZM36.8297 344.036L36.8297 342.063L34.6364 342.063L34.6364 344.036L36.8297 344.036ZM35.8541 340.973C28.0291 340.103 21.6238 338.533 16.6058 336.291L15.7111 338.293C21.0013 340.657 27.6457 342.267 35.6119 343.152L35.8541 340.973ZM16.6058 336.291C11.6145 334.061 7.96227 331.013 5.57534 327.173L3.71266 328.331C6.37017 332.606 10.3942 335.918 15.7111 338.293L16.6058 336.291ZM5.57534 327.173C3.18618 323.329 1.95729 318.498 1.95729 312.618L-0.235937 312.618C-0.235937 318.801 1.05739 324.059 3.71266 328.331L5.57534 327.173ZM1.95729 312.618C1.95729 303.246 5.13466 296.308 11.3882 291.618L10.0722 289.864C3.16639 295.043 -0.235938 302.691 -0.235937 312.618L1.95729 312.618ZM11.3953 291.613C17.587 286.89 27.1706 284.435 40.3388 284.435L40.3388 282.242C26.969 282.242 16.8135 284.722 10.0652 289.869L11.3953 291.613ZM40.3388 284.435L90.0155 284.435L90.0155 282.242L40.3388 282.242L40.3388 284.435ZM88.9189 283.339L88.9189 309.987L91.1121 309.987L91.1121 283.339L88.9189 283.339ZM90.0155 308.89L43.6287 308.89L43.6287 311.083L90.0155 311.083L90.0155 308.89ZM43.6287 308.89C36.7577 308.89 31.4613 309.935 27.9086 312.185L29.0821 314.038C32.1091 312.121 36.9016 311.083 43.6287 311.083L43.6287 308.89ZM27.9312 312.172C24.268 314.369 22.464 317.879 22.464 322.488L24.6572 322.488C24.6572 318.543 26.1431 315.802 29.0596 314.052L27.9312 312.172ZM22.464 322.488C22.464 326.277 23.7767 329.61 26.3711 332.441L27.9878 330.958C25.7571 328.525 24.6572 325.717 24.6572 322.488L22.464 322.488ZM26.3696 332.439C28.861 335.168 32.6936 337.219 37.7316 338.675L38.3403 336.568C33.5088 335.172 30.1037 333.276 27.9893 330.96L26.3696 332.439ZM37.7252 338.673C42.6894 340.14 49.0556 340.856 56.7881 340.856L56.7881 338.663C49.1679 338.663 43.0327 337.954 38.3467 336.57L37.7252 338.673ZM56.7881 340.856L90.0155 340.856L90.0155 338.663L56.7881 338.663L56.7881 340.856ZM88.9189 339.76L88.9189 366.243L91.1121 366.243L91.1121 339.76L88.9189 339.76ZM87.2191 255.73L88.1256 256.347L88.1301 256.34L88.1345 256.334L87.2191 255.73ZM71.5924 267.902L72.0243 268.91L71.5924 267.902ZM21.4222 268.396L21.0207 269.416L21.4222 268.396ZM6.28893 257.046L7.192 256.424L7.18736 256.417L7.18262 256.41L6.28893 257.046ZM4.15053 225.792L5.11429 226.315L5.12013 226.305L5.12573 226.294L4.15053 225.792ZM13.6911 216.252L14.2377 217.202L14.2481 217.196L13.6911 216.252ZM30.4693 210.659L30.6579 211.739L31.5659 211.581L31.5659 210.659L30.4693 210.659ZM30.4693 208.521L31.5659 208.521L31.5659 207.251L30.3097 207.436L30.4693 208.521ZM19.6128 210.33L19.7771 211.414L19.796 211.411L19.8149 211.408L19.6128 210.33ZM9.41428 211.646L9.48722 212.74L9.5072 212.739L9.52712 212.737L9.41428 211.646ZM-26.1161 211.975L-27.2127 211.975L-27.2127 213.071L-26.1161 213.071L-26.1161 211.975ZM-26.1161 185.327L-26.1161 184.23L-27.2127 184.23L-27.2127 185.327L-26.1161 185.327ZM90.0155 185.327L91.1121 185.327L91.1121 184.23L90.0155 184.23L90.0155 185.327ZM90.0155 208.192L90.0155 209.288L91.1121 209.288L91.1121 208.192L90.0155 208.192ZM63.5322 208.192L63.5322 207.095L62.4356 207.095L62.4356 208.192L63.5322 208.192ZM63.5322 210.165L62.4356 210.165L62.4356 211.076L63.3312 211.243L63.5322 210.165ZM79.6525 215.758L79.0954 216.703L79.103 216.707L79.6525 215.758ZM89.193 224.97L90.1503 224.435L90.1444 224.424L90.1382 224.414L89.193 224.97ZM69.454 222.009L70.4244 221.498L69.454 222.009ZM64.6837 216.581L64.0332 217.463L64.6837 216.581ZM57.2815 213.126L56.959 214.174L56.9776 214.18L56.9964 214.185L57.2815 213.126ZM37.8714 212.797L38.1044 213.869L38.1324 213.863L38.16 213.855L37.8714 212.797ZM31.2917 215.265L31.8477 216.21L31.8478 216.21L31.2917 215.265ZM26.686 219.212L27.4918 219.956L27.5213 219.924L27.5482 219.89L26.686 219.212ZM23.8896 223.983L24.9078 224.39L24.9236 224.351L24.9363 224.31L23.8896 223.983ZM26.1925 237.965L25.3811 238.702L25.3896 238.712L25.3984 238.721L26.1925 237.965ZM35.0751 243.228L35.4219 242.188L35.4126 242.185L35.0751 243.228ZM59.2554 243.064L59.6302 244.094L59.2554 243.064ZM67.9735 237.471L68.785 238.209L68.7943 238.198L68.8035 238.188L67.9735 237.471ZM91.2218 238.294C91.2218 244.56 89.5792 250.16 86.3037 255.126L88.1345 256.334C91.6581 250.991 93.415 244.967 93.415 238.294L91.2218 238.294ZM86.3127 255.113C82.9434 260.061 77.9167 263.999 71.1604 266.894L72.0243 268.91C79.0854 265.884 84.4765 261.707 88.1256 256.347L86.3127 255.113ZM71.1604 266.894C64.4288 269.779 55.9785 271.247 45.7671 271.247L45.7671 273.44C56.172 273.44 64.9385 271.947 72.0243 268.91L71.1604 266.894ZM45.7671 271.247C36.3215 271.247 28.3509 269.943 21.8237 267.375L21.0207 269.416C27.8723 272.112 36.1316 273.44 45.7671 273.44L45.7671 271.247ZM21.8237 267.375C15.2963 264.807 10.4447 261.145 7.192 256.424L5.38586 257.668C8.93212 262.816 14.1694 266.721 21.0207 269.416L21.8237 267.375ZM7.18262 256.41C3.82353 251.686 2.12179 245.995 2.12179 239.281L-0.0714391 239.281C-0.0714388 246.384 1.73599 252.535 5.39524 257.681L7.18262 256.41ZM2.12179 239.281C2.12179 234.276 3.13238 229.966 5.11429 226.315L3.18676 225.269C1.00153 229.294 -0.0714394 233.977 -0.0714391 239.281L2.12179 239.281ZM5.12573 226.294C6.98735 222.674 10.0022 219.638 14.2377 217.202L13.1444 215.301C8.60702 217.91 5.26152 221.234 3.17532 225.291L5.12573 226.294ZM14.2481 217.196C18.3749 214.763 23.8298 212.931 30.6579 211.739L30.2807 209.579C23.2914 210.799 17.5609 212.696 13.134 215.307L14.2481 217.196ZM31.5659 210.659L31.5659 208.521L29.3727 208.521L29.3727 210.659L31.5659 210.659ZM30.3097 207.436C26.5678 207.986 22.9348 208.591 19.4107 209.252L19.8149 211.408C23.3092 210.753 26.9138 210.152 30.6288 209.605L30.3097 207.436ZM19.4485 209.246C15.8444 209.792 12.4622 210.228 9.30144 210.555L9.52712 212.737C12.7267 212.406 16.1435 211.965 19.7771 211.414L19.4485 209.246ZM9.34133 210.552C6.07109 210.77 3.08013 210.878 0.367204 210.878L0.367204 213.071C3.13735 213.071 6.17777 212.961 9.48722 212.74L9.34133 210.552ZM0.367204 210.878L-26.1161 210.878L-26.1161 213.071L0.367204 213.071L0.367204 210.878ZM-25.0194 211.975L-25.0194 185.327L-27.2127 185.327L-27.2127 211.975L-25.0194 211.975ZM-26.1161 186.424L55.9656 186.424L55.9656 184.23L-26.1161 184.23L-26.1161 186.424ZM55.9656 186.424L90.0155 186.424L90.0155 184.23L55.9656 184.23L55.9656 186.424ZM88.9189 185.327L88.9189 208.192L91.1121 208.192L91.1121 185.327L88.9189 185.327ZM90.0155 207.095L63.5322 207.095L63.5322 209.288L90.0155 209.288L90.0155 207.095ZM62.4356 208.192L62.4356 210.165L64.6288 210.165L64.6288 208.192L62.4356 208.192ZM63.3312 211.243C69.7142 212.433 74.9579 214.263 79.0954 216.703L80.2095 214.814C75.7934 212.209 70.2903 210.31 63.7332 209.087L63.3312 211.243ZM79.103 216.707C83.1255 219.036 86.1609 221.978 88.2478 225.526L90.1382 224.414C87.8387 220.504 84.5137 217.305 80.2019 214.809L79.103 216.707ZM88.2358 225.505C90.2108 229.039 91.2218 233.288 91.2218 238.294L93.415 238.294C93.415 232.991 92.3424 228.357 90.1503 224.435L88.2358 225.505ZM72.1955 228.753C72.1955 226.167 71.606 223.743 70.4244 221.498L68.4835 222.52C69.4952 224.442 70.0023 226.514 70.0023 228.753L72.1955 228.753ZM70.4244 221.498C69.2432 219.254 67.5377 217.321 65.3342 215.698L64.0332 217.463C65.9968 218.91 67.4715 220.597 68.4835 222.52L70.4244 221.498ZM65.3342 215.698C63.1265 214.071 60.5311 212.866 57.5666 212.067L56.9964 214.185C59.7343 214.922 62.0737 216.02 64.0332 217.463L65.3342 215.698ZM57.604 212.078C54.6289 211.163 51.2822 210.714 47.5765 210.714L47.5765 212.907C51.1084 212.907 54.2318 213.335 56.959 214.174L57.604 212.078ZM47.5765 210.714L45.7671 210.714L45.7671 212.907L47.5765 212.907L47.5765 210.714ZM45.7671 210.714C42.8318 210.714 40.1016 211.052 37.5829 211.739L38.16 213.855C40.4664 213.226 43 212.907 45.7671 212.907L45.7671 210.714ZM37.6385 211.726C35.0239 212.294 32.7175 213.154 30.7357 214.319L31.8478 216.21C33.5945 215.182 35.6746 214.397 38.1044 213.869L37.6385 211.726ZM30.7357 214.319C28.7663 215.478 27.1231 216.881 25.8237 218.535L27.5482 219.89C28.6614 218.473 30.0887 217.245 31.8477 216.21L30.7357 214.319ZM25.8802 218.469C24.4603 220.007 23.4423 221.738 22.8429 223.656L24.9363 224.31C25.4335 222.719 26.2797 221.269 27.4918 219.956L25.8802 218.469ZM22.8714 223.575C22.1621 225.349 21.806 227.187 21.806 229.082L23.9993 229.082C23.9993 227.468 24.3011 225.907 24.9078 224.39L22.8714 223.575ZM21.806 229.082C21.806 232.841 22.9896 236.072 25.3811 238.702L27.0039 237.227C25.0089 235.032 23.9993 232.341 23.9993 229.082L21.806 229.082ZM25.3984 238.721C27.7435 241.183 30.8751 243.022 34.7375 244.272L35.4126 242.185C31.818 241.022 29.0279 239.352 26.9866 237.208L25.3984 238.721ZM34.7283 244.269C38.4743 245.517 42.596 246.134 47.083 246.134L47.083 243.941C42.7971 243.941 38.9135 243.352 35.4218 242.188L34.7283 244.269ZM47.083 246.134C51.6859 246.134 55.873 245.461 59.6302 244.094L58.8807 242.033C55.4002 243.299 51.4723 243.941 47.083 243.941L47.083 246.134ZM59.6302 244.094C63.386 242.729 66.4522 240.775 68.785 238.209L67.1621 236.733C65.1084 238.993 62.3626 240.767 58.8807 242.033L59.6302 244.094ZM68.8035 238.188C71.0711 235.562 72.1955 232.397 72.1955 228.753L70.0023 228.753C70.0023 231.908 69.0431 234.555 67.1436 236.754L68.8035 238.188ZM88.5351 170.901L89.3583 171.625L89.3653 171.617L89.3722 171.609L88.5351 170.901ZM65.9996 170.901L65.1625 171.609L65.1693 171.617L65.1764 171.625L65.9996 170.901ZM65.9996 145.404L66.8368 146.113L65.9996 145.404ZM91.0573 158.235C91.0573 163.693 89.877 167.617 87.6979 170.192L89.3722 171.609C92.0182 168.482 93.2505 163.962 93.2505 158.235L91.0573 158.235ZM87.7118 170.176C85.5779 172.601 82.204 173.916 77.3496 173.916L77.3496 176.11C82.584 176.11 86.6671 174.683 89.3583 171.625L87.7118 170.176ZM77.3496 173.916C72.3767 173.916 68.9527 172.596 66.8229 170.176L65.1764 171.625C67.8717 174.688 72.0142 176.11 77.3496 176.11L77.3496 173.916ZM66.8368 170.192C64.6577 167.617 63.4774 163.693 63.4774 158.235L61.2842 158.235C61.2842 163.962 62.5165 168.482 65.1625 171.609L66.8368 170.192ZM63.4774 158.235C63.4774 152.661 64.6604 148.685 66.8368 146.113L65.1625 144.696C62.5138 147.826 61.2842 152.404 61.2842 158.235L63.4774 158.235ZM66.8368 146.113C68.9702 143.591 72.3896 142.224 77.3496 142.224L77.3496 140.031C72.0014 140.031 67.8541 141.515 65.1625 144.696L66.8368 146.113ZM77.3496 142.224C82.0707 142.224 85.4244 143.581 87.6236 146.122C89.849 148.694 91.0573 152.666 91.0573 158.235L93.2505 158.235C93.2505 152.399 91.9914 147.817 89.282 144.687C86.5465 141.526 82.498 140.031 77.3496 140.031L77.3496 142.224ZM89.0285 110.662L90.0426 111.079L90.0461 111.071L90.0495 111.062L89.0285 110.662ZM79.6525 124.479L80.3698 125.309L80.3818 125.298L80.3935 125.287L79.6525 124.479ZM65.6706 132.21L65.9916 133.259L65.9977 133.257L65.6706 132.21ZM30.1403 132.21L29.8233 133.26L29.8364 133.264L30.1403 132.21ZM15.007 124.315L15.7027 123.467L15.6921 123.458L15.007 124.315ZM4.64399 110.991L3.6513 111.457L4.64399 110.991ZM4.64399 73.1575L5.63293 73.6314L5.63882 73.6191L5.6444 73.6067L4.64399 73.1575ZM15.1715 60.1626L15.8089 61.055L15.8191 61.0476L15.1715 60.1626ZM31.1273 53.5829L31.32 54.6625L31.1273 53.5829ZM51.1953 53.4184L52.2918 53.4016L52.2774 52.4592L51.3435 52.3319L51.1953 53.4184ZM52.1823 117.899L52.1823 118.996L53.2958 118.996L53.2788 117.883L52.1823 117.899ZM37.8714 117.899L36.775 117.919L36.7944 118.996L37.8714 118.996L37.8714 117.899ZM37.049 72.1705L37.6573 71.2581L35.9149 70.0965L35.9525 72.1903L37.049 72.1705ZM44.9446 77.4343L44.8057 78.5221L45.5529 76.5218L44.9446 77.4343ZM32.1142 77.9278L32.4111 78.9835L32.4199 78.9809L32.1142 77.9278ZM24.2186 83.027L25.0909 83.6916L25.0983 83.6819L25.1054 83.672L24.2186 83.027ZM24.7121 101.779L23.8523 102.46L23.8593 102.469L23.8666 102.478L24.7121 101.779ZM33.5946 107.372L33.9234 106.326L33.5946 107.372ZM66.6576 104.411L67.3341 105.274L67.3412 105.269L67.3482 105.263L66.6576 104.411ZM71.7568 83.5205L70.7227 83.8855L70.7263 83.8956L70.73 83.9055L71.7568 83.5205ZM68.9605 79.0792L68.2195 79.8876L68.2228 79.8907L68.9605 79.0792ZM64.3547 76.6118L64.0276 77.6585L64.0579 77.668L64.0887 77.6757L64.3547 76.6118ZM58.5975 75.6249L57.5066 75.5128L57.3888 76.6594L58.5398 76.72L58.5975 75.6249ZM61.0648 51.609L61.0971 50.5129L60.0781 50.4829L59.974 51.4969L61.0648 51.609ZM72.2503 53.7474L71.8853 54.7815L71.8944 54.7847L71.9035 54.7877L72.2503 53.7474ZM82.2843 59.9981L83.0598 59.2227L83.0527 59.2156L83.0455 59.2087L82.2843 59.9981ZM89.522 72.006L88.4934 72.3862L88.4962 72.3936L89.522 72.006ZM91.2218 90.2647C91.2218 98.1759 90.1372 104.831 88.0076 110.261L90.0495 111.062C92.3063 105.307 93.415 98.364 93.415 90.2647L91.2218 90.2647ZM88.0145 110.244C85.7649 115.708 82.7262 120.174 78.9115 123.671L80.3935 125.287C84.4743 121.547 87.6864 116.801 90.0426 111.079L88.0145 110.244ZM78.9351 123.65C74.9947 127.058 70.4678 129.562 65.3435 131.164L65.9977 133.257C71.401 131.568 76.1953 128.919 80.3698 125.309L78.9351 123.65ZM65.3496 131.162C60.0894 132.772 54.4412 133.581 48.3989 133.581L48.3989 135.774C54.6387 135.774 60.505 134.938 65.9916 133.259L65.3496 131.162ZM48.3989 133.581C42.0225 133.581 36.0394 132.771 30.4442 131.157L29.8364 133.264C35.646 134.94 41.8353 135.774 48.3989 135.774L48.3989 133.581ZM30.4572 131.16C24.7699 129.443 19.8573 126.876 15.7026 123.467L14.3114 125.162C18.7103 128.772 23.8865 131.468 29.8234 133.26L30.4572 131.16ZM15.6921 123.458C11.4441 120.06 8.09173 115.755 5.63669 110.525L3.6513 111.457C6.24069 116.973 9.79701 121.551 14.322 125.171L15.6921 123.458ZM5.63669 110.525C3.19624 105.326 1.95728 99.1853 1.95728 92.0741L-0.235947 92.0741C-0.235946 99.4382 1.04731 105.909 3.6513 111.457L5.63669 110.525ZM1.95728 92.0741C1.95728 84.8495 3.19749 78.714 5.63293 73.6314L3.65504 72.6836C1.04606 78.1285 -0.235947 84.604 -0.235947 92.0741L1.95728 92.0741ZM5.6444 73.6067C7.98073 68.403 11.3678 64.2271 15.8089 61.055L14.5341 59.2703C9.76361 62.6778 6.13236 67.1652 3.64358 72.7083L5.6444 73.6067ZM15.8191 61.0476C20.165 57.8677 25.3235 55.7332 31.32 54.6625L30.9345 52.5034C24.6489 53.6258 19.1702 55.8779 14.5239 59.2776L15.8191 61.0476ZM31.32 54.6625C37.3311 53.589 43.9039 53.5309 51.0471 54.505L51.3435 52.3319C44.0114 51.332 37.2055 51.3836 30.9345 52.5034L31.32 54.6625ZM50.0988 53.4352L51.0858 117.916L53.2788 117.883L52.2918 53.4016L50.0988 53.4352ZM52.1823 116.803L37.8714 116.803L37.8714 118.996L52.1823 118.996L52.1823 116.803ZM38.9679 117.88L38.1454 72.1508L35.9525 72.1903L36.775 117.919L38.9679 117.88ZM36.4407 73.083L44.3363 78.3467L45.5529 76.5218L37.6573 71.2581L36.4407 73.083ZM45.0835 76.3465C39.8442 75.6777 35.4033 75.831 31.8085 76.8746L32.4199 78.9809C35.6241 78.0507 39.7369 77.875 44.8057 78.5221L45.0835 76.3465ZM31.8173 76.8721C28.1251 77.9105 25.2612 79.729 23.3317 82.382L25.1054 83.672C26.6851 81.4999 29.085 79.9189 32.4111 78.9834L31.8173 76.8721ZM23.3463 82.3624C21.4131 84.8998 20.4901 88.1117 20.4901 91.9096L22.6833 91.9096C22.6833 88.4699 23.5149 85.7601 25.0909 83.6916L23.3463 82.3624ZM20.4901 91.9096C20.4901 96.0592 21.5894 99.6014 23.8523 102.46L25.5719 101.098C23.6676 98.6931 22.6833 95.6557 22.6833 91.9096L20.4901 91.9096ZM23.8666 102.478C26.1133 105.197 29.2721 107.163 33.2658 108.418L33.9234 106.326C30.2408 105.168 27.478 103.406 25.5575 101.081L23.8666 102.478ZM33.2658 108.418C37.2374 109.666 41.9046 110.278 47.2475 110.278L47.2475 108.085C42.0629 108.085 37.6282 107.49 33.9234 106.326L33.2658 108.418ZM47.2475 110.278C56.2155 110.278 62.9872 108.681 67.3341 105.274L65.9811 103.548C62.2131 106.501 56.0447 108.085 47.2475 108.085L47.2475 110.278ZM67.3482 105.263C71.7089 101.727 73.8404 96.6716 73.8404 90.2647L71.6472 90.2647C71.6472 96.1399 69.7212 100.515 65.9669 103.559L67.3482 105.263ZM73.8404 90.2647C73.8404 87.447 73.5039 85.0561 72.7836 83.1355L70.73 83.9055C71.3257 85.4941 71.6472 87.5993 71.6472 90.2647L73.8404 90.2647ZM72.7909 83.1555C72.0853 81.1563 71.0643 79.5098 69.6981 78.2678L68.2228 79.8907C69.2692 80.8419 70.1124 82.1562 70.7227 83.8855L72.7909 83.1555ZM69.7015 78.2708C68.2491 76.9395 66.55 76.0303 64.6207 75.548L64.0887 77.6757C65.6686 78.0707 67.04 78.8064 68.2195 79.8876L69.7015 78.2708ZM64.6818 75.5652C62.8289 74.9861 60.8181 74.6436 58.6551 74.5298L58.5398 76.72C60.544 76.8255 62.3713 77.1409 64.0276 77.6585L64.6818 75.5652ZM59.6883 75.737L62.1557 51.7211L59.974 51.4969L57.5066 75.5128L59.6883 75.737ZM61.0326 52.7051C64.641 52.8113 68.2574 53.5011 71.8853 54.7815L72.6153 52.7133C68.7862 51.3619 64.9457 50.6261 61.0971 50.5129L61.0326 52.7051ZM71.9035 54.7877C75.3498 55.9365 78.5563 57.9266 81.5231 60.7875L83.0455 59.2087C79.8713 56.1479 76.3885 53.9709 72.5971 52.7071L71.9035 54.7877ZM81.5089 60.7735C84.3308 63.5954 86.669 67.4496 88.4934 72.3862L90.5506 71.6259C88.6465 66.4737 86.1596 62.3226 83.0598 59.2227L81.5089 60.7735ZM88.4962 72.3936C90.2998 77.1678 91.2218 83.1136 91.2218 90.2647L93.415 90.2647C93.415 82.9405 92.4727 76.7138 90.5479 71.6185L88.4962 72.3936ZM90.0155 23.6119L90.339 24.6597L91.1121 24.421L91.1121 23.6119L90.0155 23.6119ZM3.16357 50.4242L2.06695 50.4242L2.06695 51.9104L3.48704 51.472L3.16357 50.4242ZM3.16357 21.8025L2.91029 20.7355L2.06695 20.9357L2.06695 21.8025L3.16357 21.8025ZM68.3025 6.34021L68.5558 7.40716L69.3991 7.20703L69.3991 6.34021L68.3025 6.34021ZM68.3025 5.02429L69.3991 5.02429L69.3991 4.16387L68.5634 3.95916L68.3025 5.02429ZM3.16357 -10.9315L2.06695 -10.9315L2.06695 -10.071L2.90266 -9.86634L3.16357 -10.9315ZM3.16356 -38.0727L3.48885 -39.1199L2.06695 -39.5616L2.06695 -38.0727L3.16356 -38.0727ZM90.0155 -11.096L91.1121 -11.096L91.1121 -11.9036L90.3408 -12.1432L90.0155 -11.096ZM89.692 22.5641L2.84009 49.3763L3.48704 51.472L90.339 24.6597L89.692 22.5641ZM4.26018 50.4242L4.26018 21.8025L2.06695 21.8025L2.06695 50.4242L4.26018 50.4242ZM3.41684 22.8695L68.5558 7.40716L68.0492 5.27325L2.91029 20.7355L3.41684 22.8695ZM69.3991 6.34021L69.3991 5.02429L67.2059 5.02429L67.2059 6.34021L69.3991 6.34021ZM68.5634 3.95916L3.42447 -11.9966L2.90266 -9.86634L68.0416 6.08941L68.5634 3.95916ZM4.26018 -10.9315L4.26018 -38.0727L2.06695 -38.0727L2.06695 -10.9315L4.26018 -10.9315ZM2.83828 -37.0255L89.6902 -10.0487L90.3408 -12.1432L3.48885 -39.1199L2.83828 -37.0255ZM88.9189 -11.096L88.9189 23.6119L91.1121 23.6119L91.1121 -11.096L88.9189 -11.096ZM82.2843 -52.0378L82.9162 -51.1415L82.2843 -52.0378ZM3.16356 -44.9647L2.06695 -44.9647L2.06695 -43.868L3.16356 -43.868L3.16356 -44.9647ZM3.16356 -71.6124L3.16356 -72.709L2.06695 -72.709L2.06695 -71.6124L3.16356 -71.6124ZM65.0127 -74.5732L64.4044 -75.4857L65.0127 -74.5732ZM67.48 -90.2L68.4072 -90.7856L67.48 -90.2ZM51.8533 -99.0826L52.0683 -100.158L52.0626 -100.159L51.8533 -99.0826ZM3.16356 -100.234L2.06695 -100.234L2.06695 -99.1375L3.16356 -99.1375L3.16356 -100.234ZM3.16356 -126.882L3.16356 -127.978L2.06695 -127.978L2.06695 -126.882L3.16356 -126.882ZM90.0155 -126.882L91.1121 -126.882L91.1121 -127.978L90.0155 -127.978L90.0155 -126.882ZM90.0155 -104.675L90.0212 -103.579L91.1121 -103.584L91.1121 -104.675L90.0155 -104.675ZM58.2685 -104.511L58.2628 -105.607L57.1719 -105.602L57.1719 -104.511L58.2685 -104.511ZM58.2685 -102.701L57.1719 -102.701L57.1719 -101.72L58.1474 -101.612L58.2685 -102.701ZM77.6786 -97.7667L77.2054 -96.7773L77.2142 -96.7731L77.2231 -96.7691L77.6786 -97.7667ZM88.864 -88.2261L89.8113 -88.7787L89.8066 -88.7866L88.864 -88.2261ZM91.2218 -73.7508C91.2218 -64.2693 87.9919 -57.4028 81.6525 -52.9341L82.9162 -51.1415C89.9555 -56.1036 93.415 -63.7125 93.415 -73.7508L91.2218 -73.7508ZM81.6525 -52.9341C75.2365 -48.4114 65.2554 -46.0613 51.5243 -46.0613L51.5243 -43.868C65.4279 -43.868 75.9534 -46.2333 82.9162 -51.1415L81.6525 -52.9341ZM51.5243 -46.0613L3.16356 -46.0613L3.16356 -43.868L51.5243 -43.868L51.5243 -46.0613ZM4.26018 -44.9647L4.26018 -71.6124L2.06695 -71.6124L2.06695 -44.9647L4.26018 -44.9647ZM3.16356 -70.5157L50.3728 -70.5158L50.3728 -72.709L3.16356 -72.709L3.16356 -70.5157ZM50.3728 -70.5158C57.2218 -70.5158 62.3788 -71.4994 65.6209 -73.6608L64.4044 -75.4857C61.7248 -73.6993 57.1219 -72.709 50.3728 -72.709L50.3728 -70.5158ZM65.6209 -73.6608C68.9143 -75.8564 70.5506 -79.1207 70.5506 -83.2913L68.3573 -83.2913C68.3573 -79.7856 67.0328 -77.238 64.4044 -75.4857L65.6209 -73.6608ZM70.5506 -83.2913C70.5506 -86.0157 69.8366 -88.5225 68.4072 -90.7856L66.5529 -89.6144C67.7554 -87.7104 68.3573 -85.6114 68.3573 -83.2913L70.5506 -83.2913ZM68.4072 -90.7856C66.9776 -93.0492 64.8595 -94.9721 62.1109 -96.5755L61.0058 -94.681C63.5209 -93.2139 65.3506 -91.518 66.5529 -89.6144L68.4072 -90.7856ZM62.1109 -96.5755C59.3494 -98.1863 55.9932 -99.3729 52.0683 -100.158L51.6382 -98.0073C55.3897 -97.257 58.5035 -96.1407 61.0058 -94.681L62.1109 -96.5755ZM52.0626 -100.159C48.0297 -100.943 43.4062 -101.331 38.2004 -101.331L38.2004 -99.1375C43.3028 -99.1375 47.7812 -98.7572 51.644 -98.0062L52.0626 -100.159ZM38.2004 -101.331L3.16356 -101.331L3.16356 -99.1375L38.2004 -99.1375L38.2004 -101.331ZM4.26018 -100.234L4.26018 -126.882L2.06695 -126.882L2.06695 -100.234L4.26018 -100.234ZM3.16356 -125.785L52.0178 -125.785L52.0178 -127.978L3.16356 -127.978L3.16356 -125.785ZM52.0178 -125.785L90.0155 -125.785L90.0155 -127.978L52.0178 -127.978L52.0178 -125.785ZM88.9189 -126.882L88.9189 -104.675L91.1121 -104.675L91.1121 -126.882L88.9189 -126.882ZM90.0098 -105.772L58.2628 -105.607L58.2741 -103.414L90.0212 -103.579L90.0098 -105.772ZM57.1719 -104.511L57.1719 -102.701L59.3651 -102.701L59.3651 -104.511L57.1719 -104.511ZM58.1474 -101.612C65.968 -100.743 72.3078 -99.1197 77.2054 -96.7773L78.1517 -98.7559C72.9605 -101.239 66.3602 -102.906 58.3896 -103.791L58.1474 -101.612ZM77.2231 -96.7691C82.1009 -94.5423 85.6419 -91.4995 87.9215 -87.6657L89.8066 -88.7866C87.2611 -93.0677 83.3451 -96.3853 78.134 -98.7642L77.2231 -96.7691ZM87.9168 -87.6735C90.1004 -83.9302 91.2218 -79.3066 91.2218 -73.7508L93.415 -73.7508C93.415 -79.5997 92.2335 -84.6263 89.8113 -88.7787L87.9168 -87.6735Z" fill="#868E96" mask="url(#path-1-outside-1_18_455)"/>
</svg>
