<svg width="36" height="36" viewBox="0 0 36 36" fill="none" xmlns="http://www.w3.org/2000/svg">
<path d="M18 0.5C27.665 0.5 35.5 8.33502 35.5 18C35.5 27.665 27.665 35.5 18 35.5C8.33502 35.5 0.5 27.665 0.5 18C0.5 8.33502 8.33502 0.5 18 0.5Z" stroke="#868E96"/>
<path d="M22.2001 13.8068C22.1385 13.745 22.0652 13.696 21.9846 13.6625C21.9039 13.6291 21.8175 13.6119 21.7301 13.6119C21.6428 13.6119 21.5564 13.6291 21.4757 13.6625C21.3951 13.696 21.3218 13.745 21.2601 13.8068L18.0001 17.0601L14.7401 13.8001C14.6784 13.7384 14.6052 13.6895 14.5245 13.6561C14.4439 13.6227 14.3574 13.6055 14.2701 13.6055C14.1829 13.6055 14.0964 13.6227 14.0158 13.6561C13.9351 13.6895 13.8619 13.7384 13.8001 13.8001C13.7384 13.8619 13.6895 13.9351 13.6561 14.0158C13.6227 14.0964 13.6055 14.1829 13.6055 14.2701C13.6055 14.3574 13.6227 14.4439 13.6561 14.5245C13.6895 14.6052 13.7384 14.6784 13.8001 14.7401L17.0601 18.0001L13.8001 21.2601C13.7384 21.3219 13.6895 21.3951 13.6561 21.4758C13.6227 21.5564 13.6055 21.6429 13.6055 21.7301C13.6055 21.8174 13.6227 21.9039 13.6561 21.9845C13.6895 22.0652 13.7384 22.1384 13.8001 22.2001C13.8619 22.2619 13.9351 22.3108 14.0158 22.3442C14.0964 22.3776 14.1829 22.3948 14.2701 22.3948C14.3574 22.3948 14.4439 22.3776 14.5245 22.3442C14.6052 22.3108 14.6784 22.2619 14.7401 22.2001L18.0001 18.9401L21.2601 22.2001C21.3219 22.2619 21.3951 22.3108 21.4758 22.3442C21.5564 22.3776 21.6429 22.3948 21.7301 22.3948C21.8174 22.3948 21.9039 22.3776 21.9845 22.3442C22.0652 22.3108 22.1384 22.2619 22.2001 22.2001C22.2619 22.1384 22.3108 22.0652 22.3442 21.9845C22.3776 21.9039 22.3948 21.8174 22.3948 21.7301C22.3948 21.6429 22.3776 21.5564 22.3442 21.4758C22.3108 21.3951 22.2619 21.3219 22.2001 21.2601L18.9401 18.0001L22.2001 14.7401C22.4535 14.4868 22.4535 14.0601 22.2001 13.8068Z" fill="#343A40"/>
</svg>
