<svg width="18" height="18" viewBox="0 0 18 18" fill="none" xmlns="http://www.w3.org/2000/svg">
<path d="M16.0469 8.6134C15.893 8.48305 15.6957 8.41526 15.4941 8.42345C15.2926 8.43165 15.1015 8.51523 14.9586 8.65765L14.9579 8.6584C14.8167 8.80168 14.7336 8.99219 14.7246 9.19316C14.7156 9.39413 14.7813 9.59131 14.9091 9.74665L14.9114 9.7489L7.56889 17.0914L7.56664 17.0936C7.32616 17.3339 7.00017 17.4688 6.66026 17.4688C6.32036 17.4688 5.99437 17.3339 5.75389 17.0936L5.75089 17.0906L0.908891 12.2486L0.90664 12.2464C0.666424 12.0059 0.531494 11.6799 0.531494 11.34C0.531494 11.0001 0.666424 10.6741 0.90664 10.4336L0.909641 10.4306L8.25214 3.08815L8.25439 3.0904C8.56639 3.4024 9.07189 3.4024 9.38389 3.0904L9.38614 3.08815L9.38989 3.0844C9.53965 2.93461 9.62379 2.73146 9.62379 2.51965C9.62379 2.30783 9.53965 2.10469 9.38989 1.9549L9.38764 1.95265L10.4316 0.908646L10.4339 0.906396C10.6744 0.66618 11.0004 0.53125 11.3403 0.53125C11.6802 0.53125 12.0062 0.66618 12.2466 0.906396L12.2496 0.909396L17.0916 5.7514L17.0939 5.75365C17.3341 5.99412 17.469 6.32012 17.469 6.66002C17.469 6.99992 17.3341 7.32592 17.0939 7.5664L17.0909 7.5694L16.0469 8.6134ZM11.0076 11.2046C11.0439 11.2393 11.0921 11.2586 11.1423 11.2586C11.1924 11.2586 11.2406 11.2393 11.2769 11.2046L11.7546 10.7269L11.7569 10.7246C11.7919 10.6895 11.8116 10.6419 11.8116 10.5923C11.8116 10.5426 11.7919 10.495 11.7569 10.4599L11.7539 10.4569C11.7176 10.4223 11.6694 10.403 11.6193 10.403C11.5691 10.403 11.5209 10.4223 11.4846 10.4569L11.0061 10.9354C10.9718 10.9717 10.9528 11.0198 10.9529 11.0698C10.9531 11.1198 10.9724 11.1678 11.0069 11.2039L11.0076 11.2046ZM10.0806 12.1324C10.1169 12.167 10.1651 12.1863 10.2153 12.1863C10.2654 12.1863 10.3136 12.167 10.3499 12.1324L10.8276 11.6546C10.9019 11.5804 10.9019 11.4589 10.8276 11.3846C10.7534 11.3104 10.6319 11.3104 10.5576 11.3846L10.0799 11.8624C10.0451 11.8987 10.0256 11.9471 10.0256 11.9974C10.0256 12.0477 10.0451 12.0961 10.0799 12.1324H10.0806ZM7.47064 14.7416C7.50676 14.7767 7.55502 14.7964 7.60534 14.7967C7.65566 14.797 7.70414 14.7778 7.74064 14.7431L9.25189 13.2319L9.25414 13.2296C9.28918 13.1945 9.30885 13.1469 9.30885 13.0973C9.30885 13.0476 9.28918 13 9.25414 12.9649L9.25114 12.9619C9.21487 12.9273 9.16665 12.908 9.11652 12.908C9.06638 12.908 9.01816 12.9273 8.98189 12.9619L7.46989 14.4739C7.43507 14.51 7.41549 14.5581 7.41521 14.6082C7.41493 14.6584 7.43398 14.7067 7.46839 14.7431L7.47064 14.7416ZM13.2764 8.0734C13.4856 8.0732 13.6861 7.98993 13.8339 7.84191C13.9818 7.69388 14.0647 7.49321 14.0646 7.28402C14.0645 7.07483 13.9814 6.87424 13.8334 6.72636C13.6855 6.57847 13.4848 6.4954 13.2756 6.4954C13.0665 6.4954 12.8658 6.57847 12.7179 6.72636C12.5699 6.87424 12.4867 7.07483 12.4866 7.28402C12.4865 7.49321 12.5695 7.69388 12.7173 7.84191C12.8652 7.98993 13.0657 8.0732 13.2749 8.0734H13.2764ZM10.1969 9.7474L10.1991 9.74965C10.2166 9.76711 10.2372 9.78096 10.26 9.79041C10.2828 9.79987 10.3072 9.80473 10.3319 9.80473C10.3566 9.80473 10.381 9.79987 10.4038 9.79041C10.4265 9.78096 10.4472 9.76711 10.4646 9.74965L10.4669 9.7474L10.5569 9.6574C10.6311 9.58315 10.6311 9.46165 10.5569 9.3874C10.4826 9.31315 10.3611 9.31315 10.2869 9.3874L10.1969 9.4774C10.1621 9.51371 10.1426 9.56208 10.1426 9.6124C10.1426 9.66271 10.1621 9.71109 10.1969 9.7474ZM9.56689 10.3774C9.60316 10.412 9.65138 10.4313 9.70152 10.4313C9.75165 10.4313 9.79987 10.412 9.83614 10.3774L9.92614 10.2874C10.0004 10.2131 10.0004 10.0916 9.92614 10.0174C9.85189 9.94315 9.73039 9.94315 9.65614 10.0174L9.56764 10.1059C9.53216 10.1421 9.51216 10.1907 9.51188 10.2413C9.5116 10.292 9.53181 10.3408 9.56689 10.3774ZM8.93689 11.0081C8.9732 11.043 9.02157 11.0624 9.07189 11.0624C9.12221 11.0624 9.17058 11.043 9.20689 11.0081L9.29689 10.9181C9.37114 10.8439 9.37114 10.7224 9.29689 10.6481C9.22264 10.5739 9.10114 10.5739 9.02689 10.6481L8.93689 10.7381C8.90248 10.7746 8.88343 10.8229 8.88371 10.8731C8.88399 10.9232 8.90357 10.9713 8.93839 11.0074L8.93689 11.0081ZM8.30689 11.6381C8.34316 11.6728 8.39138 11.6921 8.44151 11.6921C8.49165 11.6921 8.53987 11.6728 8.57614 11.6381L8.66614 11.5481L8.66839 11.5459C8.70343 11.5108 8.7231 11.4631 8.7231 11.4135C8.7231 11.3639 8.70343 11.3163 8.66839 11.2811L8.66539 11.2781C8.62906 11.2439 8.58095 11.2248 8.53099 11.2249C8.48103 11.2251 8.43303 11.2444 8.39689 11.2789L8.30689 11.3689C8.27239 11.405 8.25308 11.453 8.25294 11.503C8.2528 11.553 8.27185 11.6011 8.30614 11.6374L8.30689 11.6381ZM7.67689 12.2674C7.71316 12.302 7.76138 12.3213 7.81151 12.3213C7.86165 12.3213 7.90987 12.302 7.94614 12.2674L8.03614 12.1774C8.11039 12.1031 8.11039 11.9816 8.03614 11.9074C7.96189 11.8331 7.84039 11.8331 7.76614 11.9074L7.67614 11.9974C7.6413 12.0337 7.62185 12.0821 7.62185 12.1324C7.62185 12.1827 7.6413 12.2311 7.67614 12.2674H7.67689ZM7.04689 12.8974C7.08316 12.932 7.13138 12.9513 7.18151 12.9513C7.23165 12.9513 7.27987 12.932 7.31614 12.8974L7.40614 12.8074C7.48039 12.7331 7.48039 12.6116 7.40614 12.5374C7.33189 12.4631 7.21039 12.4631 7.13614 12.5374L7.04614 12.6274C7.0113 12.6637 6.99185 12.7121 6.99185 12.7624C6.99185 12.8127 7.01205 12.8611 7.04689 12.8974ZM6.41689 13.5274C6.45316 13.562 6.50138 13.5813 6.55152 13.5813C6.60166 13.5813 6.64987 13.562 6.68614 13.5274L6.77539 13.4381C6.84964 13.3639 6.84964 13.2424 6.77539 13.1681C6.70114 13.0939 6.57964 13.0939 6.50539 13.1681L6.41614 13.2574C6.3813 13.2937 6.36185 13.3421 6.36185 13.3924C6.36185 13.4427 6.38205 13.4911 6.41689 13.5274ZM11.6639 6.4624C11.8123 6.60951 12.0129 6.69204 12.2219 6.69204C12.4309 6.69204 12.6314 6.60951 12.7799 6.4624L12.7851 6.45715C12.8579 6.38467 12.9157 6.29853 12.9551 6.20368C12.9945 6.10882 13.0148 6.00712 13.0148 5.9044C13.0148 5.80168 12.9945 5.69997 12.9551 5.60511C12.9157 5.51026 12.8579 5.42412 12.7851 5.35165L12.7799 5.3464C12.7066 5.27312 12.6196 5.21499 12.5239 5.17533C12.4281 5.13568 12.3255 5.11527 12.2219 5.11527C12.0126 5.11527 11.8119 5.19841 11.6639 5.3464C11.5906 5.41967 11.5325 5.50667 11.4928 5.60241C11.4532 5.69815 11.4328 5.80077 11.4328 5.9044C11.4328 6.11369 11.5159 6.31441 11.6639 6.4624ZM6.44389 11.0344L6.45364 11.0441C6.53469 11.1255 6.63985 11.1786 6.75348 11.1954C6.8671 11.2122 6.98312 11.1918 7.08425 11.1374C7.18539 11.083 7.26624 10.9973 7.31478 10.8932C7.36332 10.7891 7.37695 10.6721 7.35364 10.5596L7.35289 10.5574L7.13689 10.6294C7.1505 10.6762 7.1512 10.7257 7.13892 10.7729C7.12664 10.82 7.10184 10.863 7.06714 10.8971L7.06564 10.8986C7.03528 10.9282 6.99877 10.9508 6.95871 10.9647C6.91865 10.9786 6.87602 10.9835 6.83385 10.979C6.79169 10.9746 6.75101 10.9609 6.71472 10.939C6.67844 10.9171 6.64742 10.8874 6.62389 10.8521L6.62464 10.8536C6.46264 10.6916 6.47164 10.5206 6.57964 10.4126L6.58114 10.4111C6.61519 10.3767 6.65787 10.3521 6.70471 10.3398C6.75155 10.3275 6.80083 10.3281 6.84739 10.3414L6.84889 10.3421L6.92089 10.1261C6.8364 10.1063 6.74825 10.1084 6.66478 10.1321C6.58131 10.1559 6.50528 10.2006 6.44389 10.2619L6.42589 10.2814L6.42664 10.2806L6.41089 10.2956C6.3617 10.345 6.32332 10.4041 6.29819 10.4691C6.27306 10.5341 6.26171 10.6036 6.26489 10.6732C6.26806 10.7428 6.28568 10.811 6.31663 10.8734C6.34757 10.9359 6.39117 10.9912 6.44464 11.0359L6.44314 11.0344H6.44389ZM8.17189 10.0631L8.36989 9.86515L7.65889 9.6934L7.57789 9.1444L7.38889 9.3334L7.48639 9.91615L7.14589 9.57565L6.97564 9.7459L7.73014 10.5004L7.90039 10.3301L7.71289 10.1426L7.68589 9.93565L8.17189 10.0631ZM8.63989 8.35315L8.85589 8.13715L9.46714 8.7484L9.63739 8.57815L9.02539 7.96615L9.25039 7.74115L9.10639 7.59715L8.49589 8.20765L8.63989 8.35315ZM8.55889 9.6574L9.07189 9.1444L8.93689 9.0094L8.59639 9.3499L8.41639 9.1699L8.71414 8.87215L8.56789 8.7259L8.27014 9.02365L8.10964 8.86315L8.44264 8.53015L8.30764 8.39515L7.80214 8.90065L8.55889 9.6574ZM6.39889 11.8174L6.56914 11.6471L5.81314 10.8911L5.64289 11.0614L6.39889 11.8174ZM4.97839 12.0139L5.19439 11.7979L5.80639 12.4099L5.97664 12.2396L5.36464 11.6276L5.58064 11.4116L5.43664 11.2676L4.83289 11.8714L4.97839 12.0139ZM10.0619 4.8604L10.0626 4.86115C10.2107 5.00898 10.4114 5.09197 10.6206 5.09186C10.8298 5.09176 11.0304 5.00857 11.1783 4.86058C11.3262 4.7126 11.4092 4.51194 11.4092 4.30273C11.4091 4.09352 11.326 3.89289 11.1781 3.74496C11.0301 3.59702 10.8295 3.5139 10.6203 3.51386C10.4111 3.51383 10.2104 3.59689 10.0625 3.74477C9.91447 3.89265 9.83128 4.09326 9.83117 4.30247C9.83107 4.51168 9.91406 4.71236 10.0619 4.8604ZM4.98589 9.9364C5.02216 9.97101 5.07038 9.99033 5.12052 9.99033C5.17065 9.99033 5.21887 9.97101 5.25514 9.9364L6.69514 8.4964C6.76939 8.42215 6.76939 8.30065 6.69514 8.2264C6.62089 8.15215 6.49939 8.15215 6.42514 8.2264L4.98514 9.6664C4.9503 9.70271 4.93085 9.75108 4.93085 9.8014C4.93085 9.85172 4.95105 9.90009 4.98589 9.9364ZM4.00264 9.8899C4.03891 9.92451 4.08713 9.94382 4.13727 9.94382C4.18741 9.94382 4.23562 9.92451 4.27189 9.8899L6.63889 7.5229C6.71314 7.44865 6.71314 7.32715 6.63889 7.2529C6.56464 7.17865 6.44314 7.17865 6.36889 7.2529L4.00264 9.61915C3.9678 9.65546 3.94835 9.70383 3.94835 9.75415C3.94835 9.80447 3.9678 9.85359 4.00264 9.8899ZM13.5336 7.79215L13.5299 7.7884C13.4547 7.71291 13.4125 7.6107 13.4125 7.50415C13.4125 7.39759 13.4547 7.29538 13.5299 7.2199L13.5336 7.21615C13.5906 7.1592 13.6632 7.12042 13.7422 7.10472C13.8212 7.08901 13.903 7.09708 13.9774 7.1279C14.0519 7.15873 14.1155 7.21093 14.1602 7.2779C14.2049 7.34487 14.2288 7.4236 14.2288 7.50415C14.2288 7.58469 14.2049 7.66342 14.1602 7.73039C14.1155 7.79736 14.0519 7.84956 13.9774 7.88039C13.903 7.91121 13.8212 7.91928 13.7422 7.90358C13.6632 7.88787 13.5906 7.84909 13.5336 7.79215ZM11.9316 6.19015C11.8747 6.13319 11.8359 6.06062 11.8202 5.98163C11.8045 5.90263 11.8126 5.82075 11.8434 5.74634C11.8742 5.67193 11.9264 5.60833 11.9934 5.56359C12.0604 5.51884 12.1391 5.49496 12.2196 5.49496C12.3002 5.49496 12.3789 5.51884 12.4459 5.56359C12.5129 5.60833 12.5651 5.67193 12.5959 5.74634C12.6267 5.82075 12.6348 5.90263 12.6191 5.98163C12.6034 6.06062 12.5646 6.13319 12.5076 6.19015L12.5039 6.1939C12.4284 6.2691 12.3262 6.31132 12.2196 6.31132C12.1131 6.31132 12.0109 6.2691 11.9354 6.1939L11.9339 6.1924L11.9316 6.19015ZM10.3296 4.58815C10.2727 4.53119 10.2339 4.45862 10.2182 4.37963C10.2025 4.30063 10.2106 4.21875 10.2414 4.14434C10.2722 4.06993 10.3244 4.00633 10.3914 3.96159C10.4584 3.91684 10.5371 3.89296 10.6176 3.89296C10.6982 3.89296 10.7769 3.91684 10.8439 3.96159C10.9109 4.00633 10.9631 4.06993 10.9939 4.14434C11.0247 4.21875 11.0328 4.30063 11.0171 4.37963C11.0014 4.45862 10.9626 4.53119 10.9056 4.58815L10.9019 4.5919C10.8264 4.6671 10.7242 4.70932 10.6176 4.70932C10.5111 4.70932 10.4089 4.6671 10.3334 4.5919L10.3319 4.5904L10.3296 4.58815Z" fill="#343A40"/>
</svg>
