<svg width="18" height="18" viewBox="0 0 18 18" fill="none" xmlns="http://www.w3.org/2000/svg">
<path fill-rule="evenodd" clip-rule="evenodd" d="M9.00003 11.8129C9.14921 11.8129 9.29229 11.7537 9.39777 11.6482C9.50326 11.5427 9.56253 11.3996 9.56253 11.2504V3.02067L10.8225 4.49142C10.9196 4.6048 11.0577 4.67497 11.2065 4.68651C11.3554 4.69804 11.5026 4.64999 11.616 4.55292C11.7294 4.45585 11.7996 4.31772 11.8111 4.16891C11.8227 4.0201 11.7746 3.8728 11.6775 3.75942L9.42753 1.13442C9.37472 1.07267 9.30916 1.02309 9.23536 0.989096C9.16157 0.955102 9.08128 0.9375 9.00003 0.9375C8.91878 0.9375 8.83849 0.955102 8.76469 0.989096C8.69089 1.02309 8.62534 1.07267 8.57253 1.13442L6.32253 3.75942C6.27446 3.81556 6.23793 3.88062 6.21501 3.95088C6.19209 4.02114 6.18323 4.09522 6.18894 4.16891C6.19465 4.24259 6.21482 4.31443 6.24829 4.38031C6.28176 4.4462 6.32789 4.50485 6.38403 4.55292C6.44017 4.60098 6.50523 4.63752 6.57549 4.66044C6.64575 4.68336 6.71983 4.69222 6.79351 4.68651C6.8672 4.6808 6.93904 4.66063 7.00492 4.62716C7.07081 4.59368 7.12946 4.54756 7.17753 4.49142L8.43753 3.02142V11.2504C8.43753 11.5609 8.68953 11.8129 9.00003 11.8129Z" fill="#868E96"/>
<path d="M12 6.75C11.4735 6.75 11.2102 6.75 11.0205 6.87675C10.9389 6.93134 10.8688 7.00142 10.8142 7.083C10.6875 7.27275 10.6875 7.536 10.6875 8.0625V11.25C10.6875 11.6976 10.5097 12.1268 10.1932 12.4432C9.87677 12.7597 9.44755 12.9375 9 12.9375C8.55245 12.9375 8.12323 12.7597 7.80676 12.4432C7.49029 12.1268 7.3125 11.6976 7.3125 11.25V8.0625C7.3125 7.536 7.3125 7.27275 7.18575 7.083C7.13116 7.00142 7.06108 6.93134 6.9795 6.87675C6.78975 6.75 6.5265 6.75 6 6.75C3.879 6.75 2.81775 6.75 2.15925 7.40925C1.5 8.06775 1.5 9.1275 1.5 11.2492V11.9992C1.5 14.1217 1.5 15.1815 2.15925 15.8407C2.81775 16.5 3.879 16.5 6 16.5H12C14.121 16.5 15.1823 16.5 15.8407 15.8407C16.4993 15.1815 16.5 14.121 16.5 12V11.25C16.5 9.12825 16.5 8.06775 15.8407 7.40925C15.1823 6.75 14.121 6.75 12 6.75Z" fill="#343A40"/>
</svg>
