<svg width="18" height="18" viewBox="0 0 18 18" fill="none" xmlns="http://www.w3.org/2000/svg">
<path fill-rule="evenodd" clip-rule="evenodd" d="M9.44514 17.4438L9.43614 17.4453L9.38289 17.4716L9.36789 17.4746L9.35739 17.4716L9.30414 17.4446C9.29614 17.4426 9.29014 17.4441 9.28614 17.4491L9.28314 17.4566L9.27039 17.7776L9.27414 17.7926L9.28164 17.8023L9.35964 17.8578L9.37089 17.8608L9.37989 17.8578L9.45789 17.8023L9.46689 17.7903L9.46989 17.7776L9.45714 17.4573C9.45514 17.4493 9.45114 17.4448 9.44514 17.4438ZM9.64314 17.3591L9.63264 17.3606L9.49464 17.4303L9.48714 17.4378L9.48489 17.4461L9.49839 17.7686L9.50214 17.7776L9.50814 17.7836L9.65889 17.8526C9.66839 17.8551 9.67564 17.8531 9.68064 17.8466L9.68364 17.8361L9.65814 17.3756C9.65564 17.3661 9.65064 17.3606 9.64314 17.3591ZM9.10689 17.3606C9.10359 17.3586 9.09964 17.3579 9.09586 17.3588C9.09209 17.3596 9.08879 17.3619 9.08664 17.3651L9.08214 17.3756L9.05664 17.8361C9.05714 17.8451 9.06139 17.8511 9.06939 17.8541L9.08064 17.8526L9.23139 17.7828L9.23889 17.7768L9.24114 17.7686L9.25464 17.4461L9.25239 17.4371L9.24489 17.4296L9.10689 17.3606Z" fill="#868E96"/>
<path fill-rule="evenodd" clip-rule="evenodd" d="M12 5.25037C12.0003 5.78662 11.8568 6.31314 11.5845 6.77512C12.1173 6.85522 12.6037 7.12388 12.9552 7.53224C13.3068 7.9406 13.5001 8.46155 13.5 9.00037V9.15787L14.7847 8.36587C14.9551 8.26085 15.1505 8.2032 15.3506 8.19885C15.5507 8.19451 15.7483 8.24363 15.9231 8.34116C16.0979 8.43868 16.2435 8.58107 16.3449 8.75364C16.4463 8.92621 16.4999 9.12271 16.5 9.32287V13.1764C16.5 13.3766 16.4466 13.5732 16.3452 13.7459C16.2439 13.9185 16.0983 14.061 15.9235 14.1586C15.7486 14.2563 15.5509 14.3054 15.3508 14.3011C15.1506 14.2968 14.9552 14.2392 14.7847 14.1341L13.5 13.3429V13.5004C13.5 14.0971 13.2629 14.6694 12.841 15.0914C12.419 15.5133 11.8467 15.7504 11.25 15.7504H3.75C3.15326 15.7504 2.58097 15.5133 2.15901 15.0914C1.73705 14.6694 1.5 14.0971 1.5 13.5004V9.00037C1.49994 8.59877 1.60736 8.20448 1.81112 7.85842C2.01488 7.51236 2.30755 7.22714 2.65875 7.03237C2.32564 6.50803 2.18927 5.88254 2.27391 5.26713C2.35854 4.65171 2.65868 4.08626 3.12096 3.6713C3.58325 3.25634 4.17771 3.01877 4.79866 3.00084C5.41961 2.98291 6.02679 3.18578 6.51225 3.57337C6.87139 3.04048 7.39216 2.63699 7.99786 2.42233C8.60356 2.20767 9.26219 2.19317 9.87675 2.38097C10.4913 2.56878 11.0293 2.94895 11.4116 3.46552C11.7938 3.98209 12.0001 4.60775 12 5.25037ZM9 3.75037C8.60218 3.75037 8.22064 3.9084 7.93934 4.18971C7.65804 4.47101 7.5 4.85254 7.5 5.25037C7.5 5.64819 7.65804 6.02972 7.93934 6.31103C8.22064 6.59233 8.60218 6.75037 9 6.75037C9.39782 6.75037 9.77936 6.59233 10.0607 6.31103C10.342 6.02972 10.5 5.64819 10.5 5.25037C10.5 4.85254 10.342 4.47101 10.0607 4.18971C9.77936 3.9084 9.39782 3.75037 9 3.75037ZM4.875 6.75037C5.17337 6.75037 5.45952 6.63184 5.6705 6.42086C5.88147 6.20988 6 5.92374 6 5.62537C6 5.327 5.88147 5.04085 5.6705 4.82987C5.45952 4.61889 5.17337 4.50037 4.875 4.50037C4.57663 4.50037 4.29048 4.61889 4.0795 4.82987C3.86853 5.04085 3.75 5.327 3.75 5.62537C3.75 5.92374 3.86853 6.20988 4.0795 6.42086C4.29048 6.63184 4.57663 6.75037 4.875 6.75037Z" fill="#343A40"/>
</svg>
