<svg width="18" height="18" viewBox="0 0 18 18" fill="none" xmlns="http://www.w3.org/2000/svg">
<path d="M3.69978 3.21387C3.06042 3.21387 2.44724 3.46785 1.99514 3.91995C1.54305 4.37205 1.28906 4.98522 1.28906 5.62458V6.10672H16.7151V5.62458C16.7151 4.98522 16.4611 4.37205 16.009 3.91995C15.5569 3.46785 14.9437 3.21387 14.3043 3.21387H3.69978ZM1.28906 12.3746V7.07101H16.7151V12.3746C16.7151 13.0139 16.4611 13.6271 16.009 14.0792C15.5569 14.5313 14.9437 14.7853 14.3043 14.7853H3.70042C3.06106 14.7853 2.44788 14.5313 1.99579 14.0792C1.54369 13.6271 1.28971 13.0139 1.28971 12.3746M11.7329 10.6067C11.605 10.6067 11.4824 10.6575 11.392 10.7479C11.3016 10.8384 11.2508 10.961 11.2508 11.0889C11.2508 11.2167 11.3016 11.3394 11.392 11.4298C11.4824 11.5202 11.605 11.571 11.7329 11.571H13.9829C14.1108 11.571 14.2334 11.5202 14.3238 11.4298C14.4143 11.3394 14.4651 11.2167 14.4651 11.0889C14.4651 10.961 14.4143 10.8384 14.3238 10.7479C14.2334 10.6575 14.1108 10.6067 13.9829 10.6067H11.7329Z" fill="#0316DC"/>
</svg>
